<?xml version="1.0" standalone="no"?>
<!DOCTYPE svg PUBLIC "-//W3C//DTD SVG 20010904//EN"
 "http://www.w3.org/TR/2001/REC-SVG-20010904/DTD/svg10.dtd">
<svg version="1.0" xmlns="http://www.w3.org/2000/svg"
 width="1500.000000pt" height="1213.000000pt" viewBox="0 0 1500.000000 1213.000000"
 preserveAspectRatio="xMidYMid meet">

<g transform="translate(0.000000,1213.000000) scale(0.100000,-0.100000)"
fill="#000000" stroke="none">
<path d="M7080 10709 c0 -6 -7 -26 -16 -44 -14 -31 -18 -33 -70 -34 -56 0 -94
-14 -94 -33 0 -6 -11 -21 -25 -34 -16 -15 -25 -34 -25 -54 0 -16 -4 -30 -10
-30 -6 0 -10 -40 -10 -100 0 -60 4 -100 10 -100 6 0 10 -11 10 -25 0 -14 5
-25 10 -25 6 0 10 -7 10 -15 0 -18 47 -65 65 -65 8 0 15 -4 15 -10 0 -6 26
-10 59 -10 l60 0 3 -37 c3 -37 3 -37 51 -39 l47 -2 0 39 0 39 50 0 c28 0 50 5
50 10 0 6 6 10 13 10 21 0 67 43 67 62 0 9 5 18 10 20 6 2 12 13 13 26 0 12 7
22 14 22 10 0 13 28 13 116 0 70 -4 113 -9 109 -6 -3 -13 10 -17 30 -3 19 -10
35 -15 35 -5 0 -9 7 -9 15 0 8 -6 15 -14 15 -8 0 -16 7 -20 15 -3 9 -18 15
-40 15 -19 0 -37 6 -39 13 -4 10 -6 10 -6 0 -1 -7 -12 -13 -26 -13 -24 0 -28
7 -37 64 -2 14 -13 19 -45 22 -27 3 -43 0 -43 -7z m-9 -170 c10 -14 11 -245 2
-286 -4 -19 -12 -23 -44 -23 -48 0 -79 28 -79 70 0 17 -4 30 -10 30 -6 0 -10
27 -10 60 0 33 4 60 10 60 6 0 10 16 10 35 0 29 4 36 25 41 14 3 25 12 25 19
0 18 59 13 71 -6z m184 -4 c15 -16 25 -37 25 -55 0 -17 5 -30 10 -30 15 0 13
-90 -2 -91 -10 0 -10 -2 0 -6 14 -6 16 -33 2 -33 -5 0 -10 -9 -10 -19 0 -11
-7 -26 -15 -35 -8 -8 -15 -19 -15 -25 0 -6 -21 -11 -50 -11 -48 0 -62 13 -35
32 6 5 5 8 -2 8 -10 0 -13 32 -13 125 0 104 3 128 17 145 24 27 57 25 88 -5z"/>
<path d="M5896 10665 c-3 -9 -18 -15 -36 -15 -25 0 -30 -4 -30 -25 0 -16 -6
-25 -15 -25 -8 0 -15 -4 -15 -10 0 -16 -19 -12 -42 10 -23 21 -58 27 -58 10 0
-5 -11 -10 -25 -10 -55 0 -11 -67 47 -70 86 -5 128 0 128 15 0 9 9 15 25 15
18 0 25 5 25 20 0 11 5 20 10 20 6 0 10 18 10 40 0 40 -13 53 -24 25z"/>
<path d="M7776 10664 c-3 -9 -6 -27 -6 -40 0 -13 -4 -24 -9 -24 -6 0 -12 -55
-14 -122 -6 -157 -24 -302 -37 -306 -5 -2 -10 -30 -10 -61 l0 -58 63 -2 c34
-1 66 -6 72 -12 5 -5 44 -9 87 -9 63 0 78 3 78 15 0 8 5 15 10 15 6 0 10 8 10
18 0 27 -66 52 -138 52 l-62 0 0 74 c0 102 7 108 116 100 l84 -6 0 41 c0 39
-2 41 -30 41 -16 0 -30 5 -30 10 0 6 -25 10 -55 10 l-55 0 0 70 c0 57 4 74 20
90 22 22 41 25 56 11 5 -5 32 -10 59 -11 90 -3 86 -5 84 45 l-3 45 -70 0 c-43
0 -82 6 -100 15 -39 20 -112 20 -120 -1z"/>
<path d="M8580 10518 c0 -9 -7 -23 -15 -32 -8 -8 -15 -31 -15 -50 0 -20 -4
-36 -9 -36 -5 0 -12 -16 -15 -35 -4 -19 -11 -35 -16 -35 -6 0 -10 -11 -10 -25
0 -14 -4 -25 -10 -25 -5 0 -10 -11 -10 -24 0 -13 -7 -29 -15 -36 -8 -7 -15
-19 -15 -26 0 -8 -4 -14 -10 -14 -5 0 -10 -11 -10 -25 0 -16 -6 -25 -15 -25
-9 0 -15 -9 -15 -22 -1 -32 -44 -62 -69 -49 -23 13 -31 5 -31 -31 0 -15 -4
-28 -10 -28 -5 0 -10 -15 -10 -33 0 -18 -7 -42 -15 -53 -21 -27 -19 -54 4 -54
11 0 26 -3 34 -6 10 -3 17 3 21 21 4 14 11 23 16 20 6 -4 10 7 10 23 0 22 6
31 21 35 12 3 22 0 26 -9 3 -9 20 -14 44 -14 21 0 39 -4 39 -9 0 -5 20 -12 45
-16 25 -3 43 -10 40 -16 -4 -5 10 -9 30 -9 20 0 47 -8 61 -17 24 -15 25 -20
19 -75 -7 -58 -7 -58 20 -58 36 0 55 22 55 64 0 20 5 36 10 36 6 0 10 10 10
23 0 12 7 32 15 44 14 20 14 22 -7 29 -34 10 -53 33 -39 47 6 6 11 26 11 44 0
18 4 33 9 33 5 0 11 18 15 40 3 22 11 40 16 40 6 0 10 23 10 51 0 31 4 48 10
44 6 -3 10 5 10 19 0 33 10 57 21 50 5 -3 9 15 9 40 0 25 4 46 9 46 5 0 11 16
13 35 3 22 0 35 -8 35 -6 0 -17 7 -24 15 -7 8 -28 15 -46 15 -19 0 -34 4 -34
9 0 4 -19 11 -41 14 -23 3 -45 10 -48 15 -3 5 -25 11 -48 14 -35 3 -43 0 -43
-14z m133 -112 c34 -6 37 -9 37 -41 0 -19 -4 -35 -10 -35 -5 0 -10 -13 -10
-28 0 -16 -7 -37 -15 -48 -8 -10 -15 -34 -15 -51 0 -18 -4 -33 -9 -33 -4 0
-11 -19 -14 -42 -3 -24 -11 -44 -16 -46 -6 -2 -11 -18 -11 -35 0 -18 -7 -40
-14 -49 -14 -19 -66 -25 -66 -8 0 6 -16 10 -35 10 -24 0 -35 5 -35 14 0 8 -6
17 -12 20 -10 5 -10 7 0 12 6 3 12 17 12 30 0 13 4 24 9 24 5 0 12 11 15 25 4
14 11 25 16 25 6 0 10 9 10 20 0 11 5 20 10 20 6 0 10 9 10 19 0 11 7 26 15
35 8 8 15 31 15 50 0 20 4 36 9 36 5 0 12 11 15 25 4 14 11 25 16 25 6 0 10
12 10 26 0 20 3 24 13 17 6 -6 29 -13 50 -17z"/>
<path d="M5930 10491 c0 -22 -7 -46 -15 -55 -9 -9 -15 -33 -15 -60 0 -25 -4
-46 -10 -46 -5 0 -10 -22 -10 -48 0 -27 -6 -57 -15 -68 -9 -11 -14 -42 -15
-76 0 -59 -15 -78 -26 -33 -3 14 -10 25 -15 25 -5 0 -9 23 -9 51 0 31 -6 56
-15 65 -8 9 -15 29 -15 45 0 16 -4 29 -10 29 -5 0 -10 18 -10 40 0 22 -4 40
-10 40 -5 0 -10 11 -10 25 0 22 -4 25 -36 25 -19 0 -42 -6 -50 -14 -16 -17
-19 -52 -4 -61 6 -3 10 -21 10 -39 0 -19 6 -39 14 -45 13 -11 19 -36 32 -141
4 -25 12 -49 20 -53 8 -4 14 -21 14 -37 0 -17 5 -30 10 -30 6 0 10 -19 10 -42
0 -24 7 -52 15 -62 8 -11 15 -31 15 -44 0 -13 6 -30 14 -38 16 -16 51 -19 41
-4 -3 6 3 10 14 10 15 0 22 9 27 35 3 19 10 35 15 35 5 0 9 25 9 55 0 30 4 55
9 55 4 0 11 27 15 60 4 33 11 60 16 60 6 0 10 34 10 75 0 41 3 75 8 75 15 0
42 -63 42 -100 0 -21 5 -40 11 -42 5 -2 13 -22 16 -46 3 -23 10 -42 14 -42 5
0 9 -20 9 -45 0 -25 4 -45 9 -45 5 0 13 -10 17 -22 9 -31 36 -57 42 -40 2 6
19 12 38 12 31 0 34 2 24 19 -5 11 -10 31 -10 45 0 14 -4 26 -10 26 -5 0 -10
18 -10 39 0 22 -5 41 -11 43 -6 2 -13 25 -16 51 -3 26 -10 47 -14 47 -5 0 -9
16 -9 36 0 19 -7 42 -15 50 -8 9 -15 33 -15 55 0 21 -4 39 -10 39 -5 0 -10 16
-10 35 0 19 -4 35 -10 35 -5 0 -13 18 -16 40 -6 40 -7 40 -50 40 l-44 0 0 -39z"/>
<path d="M9280 10255 c0 -14 -7 -28 -15 -31 -8 -4 -15 -17 -15 -29 0 -13 -4
-26 -9 -30 -5 -3 -12 -19 -16 -35 -4 -17 -11 -30 -16 -30 -5 0 -9 -11 -9 -25
0 -14 -4 -25 -9 -25 -5 0 -12 -11 -15 -25 -4 -14 -11 -25 -16 -25 -6 0 -10
-10 -10 -22 0 -26 -31 -98 -42 -98 -4 0 -8 -14 -8 -31 0 -17 -4 -28 -10 -24
-6 4 -10 -5 -10 -20 0 -14 -7 -28 -15 -31 -9 -4 -15 -19 -15 -35 0 -19 5 -29
15 -30 30 -3 34 -4 47 -16 6 -7 22 -13 35 -13 13 0 23 -4 23 -9 0 -5 14 -12
30 -16 17 -4 30 -11 30 -16 0 -5 9 -9 21 -9 11 0 27 -7 36 -15 24 -24 57 2 61
49 3 33 1 36 -22 36 -14 0 -26 4 -26 10 0 5 -11 12 -25 16 -14 3 -25 10 -25
15 0 5 -11 9 -25 9 -23 0 -25 3 -25 50 0 28 5 50 10 50 6 0 10 6 10 13 0 8 8
23 18 35 17 19 23 20 55 10 20 -6 37 -15 37 -20 0 -4 11 -8 25 -8 14 0 25 -4
25 -10 0 -19 39 -10 45 10 3 11 11 20 16 20 5 0 9 11 9 25 0 18 -5 25 -19 25
-10 0 -24 7 -31 15 -7 8 -21 15 -31 15 -11 0 -19 5 -19 10 0 6 -11 10 -25 10
-21 0 -25 5 -25 30 0 17 5 30 10 30 6 0 10 11 10 24 0 14 7 31 15 40 8 8 15
19 15 25 0 6 11 10 25 9 14 -1 25 -8 25 -15 0 -11 26 -16 56 -12 4 0 10 -4 14
-11 4 -6 23 -13 43 -17 30 -4 37 -3 37 11 0 9 5 16 10 16 6 0 10 11 10 25 0
18 -5 25 -20 25 -11 0 -20 5 -20 10 0 6 -8 10 -19 10 -10 0 -24 7 -31 15 -7 8
-20 15 -30 15 -21 0 -80 29 -80 39 0 4 -20 8 -45 10 -42 2 -45 0 -45 -24z"/>
<path d="M5170 10240 c0 -5 -9 -10 -20 -10 -19 0 -20 -7 -21 -107 -1 -60 -3
-157 -5 -218 -2 -60 -4 -118 -4 -127 0 -10 -4 -18 -10 -18 -5 0 -10 8 -10 18
0 9 -7 26 -15 36 -8 11 -15 28 -15 38 0 10 -4 18 -10 18 -5 0 -10 9 -10 20 0
11 -4 20 -9 20 -10 0 -41 78 -41 103 0 10 -4 16 -8 13 -14 -9 -42 33 -42 63
l0 29 -42 -11 c-24 -6 -46 -15 -50 -21 -14 -20 -9 -56 7 -56 9 0 15 -9 15 -25
0 -14 5 -25 10 -25 6 0 10 -11 10 -24 0 -13 7 -29 15 -36 8 -7 15 -19 15 -26
0 -8 5 -14 10 -14 6 0 10 -11 10 -24 0 -13 7 -26 15 -30 8 -3 15 -15 15 -26 0
-11 5 -20 10 -20 6 0 10 -11 10 -25 0 -16 6 -25 15 -25 9 0 15 -9 15 -25 0
-14 5 -25 10 -25 6 0 10 -11 10 -24 0 -13 7 -26 15 -30 8 -3 15 -12 15 -21 0
-8 5 -15 10 -15 6 0 10 -13 10 -30 0 -27 3 -30 33 -30 63 0 67 14 67 255 0
134 4 215 10 215 5 0 12 -11 16 -25 3 -14 10 -22 15 -19 5 3 9 -6 9 -19 0 -14
7 -28 16 -31 8 -3 13 -10 10 -15 -4 -5 1 -16 9 -24 8 -9 15 -25 15 -36 0 -12
4 -21 10 -21 5 0 12 -11 16 -25 3 -14 10 -22 15 -19 5 3 9 -9 9 -25 0 -17 4
-31 9 -31 5 0 12 -11 15 -25 4 -16 13 -25 26 -25 11 0 20 4 20 9 0 5 10 11 23
13 17 2 23 11 25 36 2 18 -1 32 -7 32 -6 0 -11 11 -11 25 0 14 -4 25 -9 25
-12 0 -41 58 -41 82 0 10 -7 18 -15 18 -8 0 -15 9 -15 20 0 11 -4 20 -10 20
-5 0 -10 8 -10 18 0 9 -7 26 -15 36 -8 11 -15 28 -15 38 0 10 -4 18 -10 18 -5
0 -10 5 -10 11 0 6 -7 17 -15 25 -8 9 -15 24 -15 35 0 11 -4 17 -10 14 -6 -4
-10 5 -10 19 0 14 -4 26 -9 26 -5 0 -13 10 -17 22 -11 37 -54 67 -54 38z"/>
<path d="M9900 9930 c0 -11 -4 -20 -9 -20 -5 0 -12 -11 -15 -25 -4 -14 -11
-25 -16 -25 -6 0 -10 -7 -10 -15 0 -8 -4 -15 -9 -15 -5 0 -12 -11 -15 -25 -4
-14 -11 -25 -16 -25 -6 0 -10 -5 -10 -10 0 -10 -8 -22 -37 -55 -7 -7 -13 -21
-13 -30 0 -9 -11 -26 -25 -39 -14 -13 -25 -30 -25 -37 0 -8 -11 -26 -25 -41
-14 -15 -25 -34 -25 -43 0 -8 -4 -15 -9 -15 -5 0 -11 -9 -14 -21 -3 -12 -10
-18 -16 -14 -19 11 -12 -35 9 -57 11 -12 20 -18 20 -13 0 5 6 0 14 -10 12 -17
15 -18 30 -3 9 9 16 21 16 27 0 6 4 11 9 11 5 0 12 11 15 25 4 14 11 25 16 25
6 0 10 7 10 15 0 8 4 15 9 15 5 0 12 9 16 19 8 26 37 36 51 17 6 -9 18 -16 27
-16 8 0 17 -6 20 -12 5 -18 169 -17 175 0 2 7 9 12 16 12 7 0 19 11 26 25 7
14 17 25 22 25 4 0 8 7 8 15 0 7 6 18 13 22 24 16 37 53 37 108 0 30 -4 55
-10 55 -5 0 -10 11 -10 25 0 14 -5 25 -11 25 -6 0 -17 6 -25 14 -8 8 -14 19
-14 25 0 6 -7 11 -16 11 -8 0 -32 11 -52 25 -20 14 -42 25 -49 25 -7 0 -13 5
-13 10 0 6 -16 10 -35 10 -28 0 -35 -4 -35 -20z m100 -108 c0 -5 11 -15 25
-22 16 -9 25 -22 25 -37 0 -14 4 -21 10 -18 6 3 10 1 10 -4 0 -6 -4 -11 -10
-11 -5 0 -10 -15 -10 -34 0 -21 -6 -36 -16 -40 -8 -3 -12 -10 -9 -16 3 -5 1
-10 -5 -10 -6 0 -18 -7 -26 -15 -17 -17 -94 -21 -94 -5 0 5 -11 12 -25 16 -18
4 -25 13 -25 31 0 13 4 21 10 18 6 -3 10 1 10 10 0 8 7 18 15 21 8 4 15 15 15
25 0 10 4 19 9 19 5 0 12 8 15 18 17 44 32 62 53 62 13 0 23 -4 23 -8z"/>
<path d="M4450 9842 c0 -5 -11 -15 -25 -22 -22 -12 -25 -20 -25 -71 0 -31 4
-59 10 -61 12 -4 25 -146 16 -182 -8 -33 -26 -34 -26 -1 0 14 -5 25 -11 25
-16 0 -39 26 -39 45 0 9 -4 13 -10 10 -5 -3 -12 6 -16 20 -3 14 -10 25 -15 25
-5 0 -9 7 -9 16 0 8 -4 12 -10 9 -5 -3 -10 0 -10 7 0 7 -4 19 -9 27 -7 12 -13
12 -40 0 -17 -8 -31 -20 -31 -26 0 -7 -4 -13 -10 -13 -5 0 -10 -9 -10 -20 0
-11 5 -20 10 -20 6 0 10 -7 10 -15 0 -8 7 -15 15 -15 8 0 15 -7 15 -15 0 -8 5
-15 10 -15 6 0 10 -7 10 -15 0 -9 11 -26 25 -39 14 -13 25 -27 25 -32 0 -5 11
-21 25 -36 14 -15 25 -34 25 -41 0 -8 7 -17 15 -21 8 -3 15 -12 15 -21 0 -8 5
-15 10 -15 6 0 10 -5 10 -10 0 -10 8 -22 38 -55 6 -7 12 -17 12 -21 0 -4 11
-17 25 -30 14 -13 25 -32 25 -44 0 -11 6 -20 14 -20 8 0 16 -6 18 -12 6 -17
68 45 68 67 0 9 -6 23 -12 30 -32 35 -38 45 -38 60 0 9 -4 13 -10 10 -5 -3
-10 1 -10 10 0 8 -7 18 -15 21 -8 4 -15 13 -15 21 0 8 -7 21 -15 29 -23 24
-18 44 10 44 14 0 25 -4 25 -10 0 -5 6 -10 14 -10 7 0 19 -7 26 -15 7 -8 23
-15 36 -15 13 0 24 -4 24 -10 0 -5 6 -10 14 -10 8 0 21 -6 28 -13 36 -36 138
-55 138 -27 0 5 10 10 23 12 26 4 38 48 13 48 -9 0 -16 5 -16 10 0 6 -9 10
-21 10 -11 0 -27 7 -35 15 -9 8 -26 15 -40 15 -13 0 -24 4 -24 9 0 5 -11 12
-25 15 -14 4 -25 11 -25 16 0 6 -9 10 -20 10 -11 0 -20 4 -20 9 0 6 -19 11
-42 13 l-43 3 -3 83 c-2 49 -7 80 -12 77 -6 -4 -10 31 -10 89 0 96 0 96 -25
96 -14 0 -25 -4 -25 -8z"/>
<path d="M10568 9455 c-15 -14 -36 -25 -48 -25 -11 0 -20 -7 -20 -15 0 -8 -7
-15 -15 -15 -8 0 -15 -3 -15 -8 0 -4 -16 -16 -35 -26 -19 -11 -35 -23 -35 -28
0 -4 -11 -8 -25 -8 -14 0 -25 -5 -25 -11 0 -16 -31 -38 -52 -39 -10 0 -18 -7
-18 -15 0 -8 -7 -15 -15 -15 -8 0 -15 -4 -15 -10 0 -5 -9 -10 -20 -10 -11 0
-23 -7 -26 -15 -4 -8 -13 -15 -22 -15 -8 0 -12 -3 -9 -7 6 -6 -13 -20 -53 -40
-18 -8 -40 -29 -40 -38 0 -3 11 -17 25 -30 24 -25 65 -34 65 -15 0 6 5 10 10
10 6 0 23 11 38 25 28 27 62 33 62 13 0 -9 4 -8 10 2 7 11 10 12 10 2 0 -13
24 -42 34 -42 13 0 46 -36 46 -50 0 -9 -7 -25 -15 -36 -8 -10 -15 -29 -15 -41
0 -13 -4 -23 -10 -23 -5 0 -10 -11 -10 -25 0 -15 6 -25 14 -25 7 0 19 -7 26
-15 19 -23 47 -18 54 10 4 14 11 25 16 25 6 0 10 14 10 30 0 17 4 30 9 30 5 0
12 11 15 25 4 14 11 25 16 25 6 0 10 14 10 30 0 17 5 30 10 30 6 0 10 11 10
25 0 14 7 28 15 31 8 4 15 17 15 30 0 13 5 24 10 24 6 0 10 9 10 19 0 28 11
52 21 45 5 -3 9 9 9 25 0 17 4 31 9 31 5 0 12 11 15 25 4 14 11 25 16 25 6 0
10 14 10 30 0 17 5 30 10 30 16 0 12 13 -14 43 -29 33 -44 34 -78 2z m-48
-150 c0 -14 -4 -25 -10 -25 -5 0 -10 -9 -10 -21 0 -11 -4 -17 -10 -14 -6 3
-10 -5 -10 -19 0 -13 -7 -31 -15 -40 -8 -8 -15 -24 -15 -35 0 -16 -6 -21 -25
-21 -14 0 -25 4 -25 9 0 5 -9 11 -20 14 -23 6 -39 39 -22 45 7 2 12 10 12 18
0 8 7 14 15 14 8 0 15 4 15 9 0 5 10 13 22 17 12 4 36 22 53 40 36 40 45 42
45 9z"/>
<path d="M3850 9363 c0 -7 -9 -13 -20 -13 -10 0 -24 -8 -29 -17 -6 -10 -11
-13 -11 -8 0 11 -26 -30 -36 -57 -3 -10 -10 -16 -14 -13 -5 3 -11 -8 -15 -25
-4 -16 -11 -30 -16 -30 -5 0 -9 -16 -9 -35 0 -19 4 -35 10 -35 5 0 12 -16 16
-35 3 -19 10 -35 15 -35 5 0 9 -11 9 -25 0 -14 5 -25 10 -25 6 0 10 -4 10 -10
0 -5 9 -19 20 -30 12 -12 18 -25 15 -30 -4 -6 -1 -10 5 -10 14 0 40 -25 40
-39 0 -6 5 -11 10 -11 6 0 23 -11 38 -25 15 -14 32 -25 39 -25 7 0 13 -4 13
-10 0 -5 11 -12 25 -16 14 -3 25 -10 25 -15 0 -5 35 -9 79 -9 57 0 82 4 91 15
7 8 16 12 21 9 5 -3 9 2 9 10 0 9 5 16 11 16 14 0 39 25 39 39 0 6 4 11 10 11
5 0 12 11 16 25 3 14 10 22 15 19 5 -3 9 5 9 17 0 12 -3 19 -7 16 -3 -4 -14 0
-24 9 -23 21 -51 15 -64 -14 -5 -12 -15 -22 -22 -22 -7 0 -13 -7 -13 -15 0 -8
-9 -15 -20 -15 -11 0 -20 -4 -20 -10 0 -5 -16 -10 -35 -10 -19 0 -35 5 -35 10
0 6 -13 10 -30 10 -20 0 -30 5 -30 15 0 8 -5 15 -11 15 -5 0 -24 13 -42 30
-18 16 -35 30 -39 30 -5 0 -8 9 -8 20 0 11 -7 20 -15 20 -8 0 -15 7 -15 16 0
8 -4 12 -10 9 -6 -3 -10 5 -10 19 0 13 -5 26 -11 28 -6 2 -14 26 -16 54 -4 38
-1 54 11 66 9 9 16 19 16 23 0 8 27 35 35 35 3 0 15 8 26 18 19 18 18 52 -2
52 -5 0 -9 7 -9 15 0 10 -9 14 -25 13 -14 -1 -25 -8 -25 -15z"/>
<path d="M11080 8990 c0 -5 -7 -10 -15 -10 -8 0 -15 -7 -15 -15 0 -8 -5 -15
-11 -15 -14 0 -39 -25 -39 -39 0 -6 -3 -10 -7 -10 -22 4 -43 -2 -43 -12 0 -11
-25 -39 -35 -39 -4 0 -12 -6 -19 -12 -27 -27 -79 -63 -88 -60 -4 1 -8 -5 -8
-13 0 -8 -7 -15 -15 -15 -8 0 -15 -4 -15 -10 0 -5 -8 -10 -19 -10 -10 0 -24
-7 -32 -16 -14 -17 -75 -17 -98 0 -10 8 -15 8 -18 -1 -3 -7 -9 -13 -15 -13
-13 0 -38 -26 -38 -39 0 -17 74 -85 78 -73 2 7 8 12 13 12 6 0 7 -4 4 -10 -4
-6 7 -10 24 -10 17 0 31 5 31 10 0 6 9 10 19 10 11 0 26 7 35 15 8 8 22 15 30
15 9 0 16 6 16 13 0 7 9 13 21 14 11 1 29 11 39 22 9 12 22 21 29 21 6 0 11 7
11 15 0 8 7 15 15 15 8 0 15 5 15 11 0 5 4 8 8 5 5 -3 15 4 22 15 8 10 19 19
24 19 5 0 23 16 42 35 31 33 74 47 74 25 0 -5 7 -10 15 -10 8 0 15 -6 15 -14
0 -8 5 -16 12 -18 16 -6 3 -37 -19 -45 -23 -9 -43 -29 -43 -42 0 -6 -5 -11
-11 -11 -6 0 -25 -16 -43 -35 -19 -19 -38 -35 -43 -35 -5 0 -16 -11 -23 -25
-7 -14 -17 -25 -22 -25 -10 0 -31 -16 -55 -42 -9 -9 -20 -15 -25 -12 -4 3 -8
0 -8 -6 0 -14 -25 -40 -39 -40 -6 0 -11 -7 -11 -15 0 -8 -4 -15 -9 -15 -5 0
-12 -7 -15 -17 -5 -11 5 -27 31 -51 30 -27 39 -31 41 -18 2 9 8 16 13 16 14 0
39 26 39 39 0 6 5 11 11 11 6 0 17 6 24 13 33 29 45 37 55 37 5 0 10 5 10 11
0 14 25 39 39 39 6 0 11 5 11 11 0 14 25 39 39 39 6 0 11 7 11 15 0 8 3 14 8
13 4 -2 36 25 71 60 35 34 70 62 78 62 7 0 13 7 13 15 0 8 7 15 16 15 17 0 15
2 -58 81 -16 16 -28 34 -28 39 0 6 -4 10 -9 10 -6 0 -18 14 -28 30 -9 17 -23
30 -30 30 -7 0 -13 5 -13 11 0 11 -24 39 -34 39 -3 0 -6 -4 -6 -10z"/>
<path d="M3330 8815 c0 -8 -7 -15 -15 -15 -10 0 -15 -10 -15 -30 0 -23 5 -31
25 -36 14 -3 25 -12 25 -20 0 -8 7 -14 16 -14 8 0 12 -4 9 -10 -3 -5 1 -10 9
-10 9 0 16 -4 16 -10 0 -5 5 -10 10 -10 6 0 18 -6 26 -12 50 -43 55 -56 29
-82 -8 -8 -15 -17 -15 -21 0 -10 -57 -65 -68 -65 -6 0 -12 -5 -14 -10 -2 -6
-13 -2 -25 10 -12 11 -27 20 -33 20 -5 0 -10 7 -10 15 0 8 -5 15 -11 15 -6 0
-17 6 -24 13 -33 29 -45 37 -54 37 -5 0 -11 4 -13 9 -5 14 -48 24 -48 10 0 -6
-11 -22 -25 -35 -27 -25 -31 -34 -14 -34 6 0 17 -6 24 -12 33 -30 45 -38 55
-38 5 0 10 -7 10 -15 0 -8 4 -15 9 -15 4 0 25 -16 45 -35 21 -19 41 -35 46
-35 5 0 25 -16 46 -35 20 -19 41 -35 45 -35 5 0 9 -7 9 -15 0 -8 7 -15 15 -15
8 0 15 -5 15 -11 0 -5 5 -7 10 -4 6 3 10 2 10 -3 0 -5 11 -15 25 -22 14 -7 25
-19 25 -27 0 -7 5 -13 11 -13 6 0 17 -7 26 -15 8 -8 18 -13 23 -10 4 3 10 -2
14 -10 7 -19 26 -19 26 0 0 8 5 15 11 15 16 0 39 26 39 44 0 9 -4 16 -9 16 -4
0 -22 14 -39 30 -18 17 -34 30 -37 30 -2 0 -18 12 -34 28 -47 43 -59 52 -71
52 -5 0 -10 5 -10 10 0 6 5 10 10 10 6 0 10 7 10 15 0 8 11 25 25 39 14 14 25
28 25 31 0 3 9 14 19 24 22 22 61 24 61 4 0 -7 5 -13 11 -13 14 0 39 -26 39
-40 0 -6 4 -9 9 -5 5 3 12 1 16 -5 4 -6 11 -8 16 -5 5 4 9 0 9 -8 0 -7 11 -20
25 -27 14 -7 25 -17 25 -22 0 -4 11 -8 25 -8 14 0 25 5 25 12 0 6 7 19 15 28
15 16 10 64 -6 54 -5 -3 -9 2 -9 10 0 9 -7 16 -15 16 -8 0 -25 11 -39 25 -14
14 -28 25 -32 25 -4 0 -17 11 -29 24 -13 14 -26 22 -29 19 -3 -4 -6 1 -6 11 0
9 -4 14 -10 11 -5 -3 -10 -1 -10 4 0 6 -5 11 -11 11 -7 0 -22 11 -35 25 -13
14 -28 25 -34 25 -6 0 -8 5 -5 10 3 6 -1 10 -9 10 -9 0 -16 5 -16 11 0 5 -4 8
-8 5 -5 -3 -15 4 -22 15 -8 10 -20 19 -27 19 -7 0 -13 7 -13 15 0 8 -5 15 -10
15 -6 0 -22 11 -36 25 -28 28 -74 34 -74 10z"/>
<path d="M4350 6356 c0 -1568 3 -2354 10 -2372 6 -14 13 -66 17 -115 3 -49 10
-89 14 -89 5 0 9 -22 9 -50 0 -27 4 -50 10 -50 5 0 12 -23 16 -50 4 -28 11
-53 15 -56 5 -3 9 -19 9 -35 0 -17 7 -37 15 -45 8 -9 15 -26 15 -40 0 -13 5
-24 10 -24 6 0 10 -11 10 -24 0 -25 29 -88 43 -94 4 -2 7 -17 7 -33 0 -16 4
-29 10 -29 5 0 12 -11 16 -25 3 -14 10 -25 15 -25 5 0 9 -9 9 -20 0 -11 7 -23
15 -26 8 -4 15 -17 15 -31 0 -13 4 -21 10 -18 6 3 10 -1 10 -10 0 -9 6 -23 13
-30 28 -32 35 -43 41 -63 4 -12 12 -22 17 -22 5 0 9 -7 9 -15 0 -8 5 -15 10
-15 6 0 10 -8 10 -19 0 -10 11 -27 25 -37 14 -10 25 -24 25 -31 0 -7 4 -13 9
-13 5 0 13 -10 17 -22 8 -26 28 -48 43 -48 6 0 11 -7 11 -15 0 -8 5 -15 10
-15 6 0 10 -4 10 -10 0 -15 33 -50 42 -44 4 3 8 -2 8 -11 0 -9 11 -26 25 -39
14 -13 25 -28 25 -35 0 -6 5 -11 11 -11 14 0 39 -25 39 -39 0 -6 5 -11 11 -11
14 0 39 -25 39 -39 0 -6 5 -11 11 -11 14 0 39 -25 39 -39 0 -6 5 -11 10 -11 6
0 22 -11 36 -25 14 -14 31 -25 39 -25 8 0 15 -7 15 -16 0 -8 4 -12 10 -9 6 3
10 -1 10 -9 0 -9 7 -16 15 -16 8 0 15 -4 15 -10 0 -5 7 -10 15 -10 8 0 15 -7
15 -16 0 -8 4 -13 8 -10 5 3 23 -8 41 -24 18 -17 34 -30 37 -30 3 0 17 -11 32
-25 15 -14 32 -25 39 -25 7 0 13 -4 13 -10 0 -5 7 -10 15 -10 8 0 15 -7 15
-15 0 -9 10 -15 26 -15 14 0 23 -4 19 -10 -3 -5 1 -10 9 -10 9 0 16 -4 16 -10
0 -5 11 -12 25 -16 14 -3 25 -10 25 -14 0 -4 11 -11 25 -14 14 -4 25 -11 25
-16 0 -6 8 -10 19 -10 10 0 30 -11 45 -25 15 -14 36 -25 47 -25 10 0 19 -4 19
-9 0 -5 11 -12 25 -15 14 -4 25 -11 25 -16 0 -6 11 -10 25 -10 14 0 25 -4 25
-10 0 -5 8 -10 18 -10 10 0 27 -7 38 -15 10 -8 27 -15 37 -15 9 0 17 -4 17
-10 0 -5 10 -10 23 -10 13 0 32 -7 43 -15 10 -8 29 -15 42 -15 12 0 22 -4 22
-9 0 -5 13 -12 30 -16 16 -4 32 -11 35 -16 4 -5 19 -9 36 -9 16 0 29 -4 29
-10 0 -5 11 -10 24 -10 14 0 31 -7 40 -15 8 -8 32 -15 55 -15 22 0 43 -4 46
-10 3 -5 24 -10 45 -10 21 0 45 -7 54 -15 9 -9 33 -15 60 -15 25 0 46 -4 46
-9 0 -4 37 -11 83 -15 45 -4 84 -11 85 -16 2 -6 39 -10 83 -10 46 0 79 -4 79
-10 0 -6 110 -10 310 -10 200 0 310 4 310 10 0 6 31 10 73 10 40 0 78 5 83 10
6 6 47 13 92 17 45 3 82 10 82 14 0 5 20 9 44 9 24 0 46 5 48 11 2 6 25 13 51
16 26 3 50 10 53 14 3 5 21 9 40 9 20 0 42 7 50 15 9 8 26 15 40 15 13 0 24 5
24 10 0 6 15 10 33 10 17 0 41 7 51 15 11 8 30 15 43 15 13 0 23 5 23 10 0 6
11 10 24 10 13 0 26 7 30 15 3 9 18 15 36 15 16 0 30 5 30 10 0 6 8 10 19 10
10 0 24 7 31 15 7 8 21 15 31 15 11 0 19 5 19 10 0 6 11 10 24 10 13 0 29 7
36 15 7 8 19 15 26 15 8 0 14 5 14 10 0 6 11 10 24 10 13 0 26 7 30 15 3 8 15
15 26 15 11 0 20 5 20 10 0 6 7 10 15 10 8 0 15 4 15 10 0 5 11 12 25 16 14 3
25 10 25 15 0 5 6 9 13 9 8 0 27 11 43 25 16 14 37 28 47 31 9 3 17 10 17 15
0 5 7 9 15 9 8 0 15 5 15 10 0 6 7 10 15 10 8 0 25 11 39 25 14 14 30 25 36
25 5 0 10 4 10 9 0 5 10 13 22 17 12 3 36 22 54 40 17 19 36 34 43 34 6 0 11
5 11 11 0 5 4 8 9 5 5 -3 11 3 14 14 3 12 14 20 26 20 12 0 21 5 21 11 0 14
25 39 39 39 6 0 11 5 11 11 0 14 25 39 39 39 6 0 11 7 11 15 0 8 5 15 10 15
11 0 90 76 90 86 0 10 28 34 39 34 6 0 11 5 11 11 0 14 25 39 39 39 6 0 11 5
11 10 0 6 11 23 25 38 14 15 25 30 25 35 0 4 10 18 23 30 13 12 32 37 42 54
11 18 23 33 27 33 4 0 8 5 8 10 0 6 11 23 25 38 14 15 25 32 25 39 0 7 4 13 9
13 5 0 12 11 15 25 4 14 11 25 16 25 6 0 10 5 10 11 0 6 6 17 13 24 31 36 37
46 37 65 0 11 5 20 10 20 6 0 10 7 10 15 0 9 7 18 15 21 9 4 15 19 15 35 0 16
5 29 10 29 6 0 10 7 10 15 0 9 7 18 15 21 8 4 15 17 15 30 0 13 5 24 10 24 6
0 10 11 10 24 0 14 7 31 15 40 8 8 15 24 15 35 0 12 4 21 9 21 5 0 12 20 15
45 4 25 11 45 17 45 5 0 9 18 9 40 0 22 5 40 10 40 6 0 10 16 10 35 0 22 6 38
15 41 12 5 15 27 15 115 0 66 4 109 10 109 7 0 10 798 10 2375 l0 2375 -2960
0 -2960 0 0 -2344z m5750 -147 c0 -1290 -4 -2318 -9 -2315 -4 3 -11 -31 -14
-77 -3 -45 -10 -83 -16 -85 -6 -2 -11 -21 -11 -43 0 -21 -4 -39 -9 -39 -5 0
-11 -18 -15 -40 -3 -22 -11 -40 -16 -40 -6 0 -10 -16 -10 -35 0 -19 -4 -35
-10 -35 -5 0 -10 -9 -10 -20 0 -11 -7 -23 -15 -26 -9 -4 -15 -19 -15 -40 0
-19 -4 -34 -9 -34 -5 0 -12 -11 -15 -25 -4 -14 -11 -25 -16 -25 -6 0 -10 -7
-10 -15 0 -8 -4 -15 -10 -15 -5 0 -10 -9 -10 -19 0 -28 -11 -52 -21 -45 -5 3
-9 -4 -9 -15 0 -12 -4 -21 -9 -21 -5 0 -11 -9 -14 -21 -3 -12 -10 -18 -16 -14
-7 3 -11 -2 -11 -15 0 -19 -6 -29 -37 -65 -7 -7 -13 -18 -13 -24 0 -6 -4 -11
-9 -11 -5 0 -12 -11 -15 -25 -4 -14 -11 -25 -16 -25 -6 0 -10 -7 -10 -15 0 -8
-4 -15 -9 -15 -5 0 -13 -9 -16 -20 -4 -11 -11 -18 -16 -15 -5 4 -9 -3 -9 -15
0 -12 -4 -19 -9 -16 -5 3 -17 -7 -27 -22 -10 -15 -35 -44 -56 -65 -21 -21 -38
-44 -38 -52 0 -8 -4 -15 -8 -15 -5 0 -26 -18 -48 -41 -21 -22 -48 -50 -60 -62
-31 -33 -83 -77 -90 -77 -3 0 -20 -16 -38 -35 -19 -19 -37 -35 -40 -35 -11 0
-36 -27 -36 -39 0 -6 -11 -11 -25 -11 -14 0 -25 -5 -25 -11 0 -14 -25 -39 -39
-39 -6 0 -11 -4 -11 -10 0 -5 -7 -10 -15 -10 -8 0 -27 -12 -42 -28 -15 -15
-31 -26 -35 -24 -4 1 -8 -2 -8 -7 0 -5 -10 -13 -22 -17 -20 -6 -31 -13 -63
-41 -7 -7 -20 -13 -27 -13 -7 0 -25 -10 -38 -22 -30 -27 -90 -62 -90 -53 0 4
-7 -1 -16 -9 -8 -9 -22 -16 -30 -16 -8 0 -14 -4 -14 -10 0 -5 -11 -12 -25 -16
-14 -3 -25 -10 -25 -15 0 -5 -11 -9 -25 -9 -14 0 -25 -4 -25 -10 0 -5 -11 -12
-25 -16 -14 -3 -25 -10 -25 -15 0 -5 -15 -9 -34 -9 -21 0 -36 -6 -40 -16 -3
-8 -10 -13 -14 -10 -5 3 -18 -1 -28 -9 -10 -8 -29 -15 -41 -15 -13 0 -23 -4
-23 -9 0 -5 -16 -12 -35 -15 -19 -4 -35 -11 -35 -16 0 -6 -11 -10 -24 -10 -13
0 -37 -7 -52 -15 -16 -8 -39 -15 -51 -15 -13 0 -23 -4 -23 -10 0 -5 -19 -10
-42 -10 -24 0 -52 -7 -62 -15 -11 -8 -35 -15 -53 -15 -18 0 -33 -4 -33 -10 0
-6 -30 -10 -71 -10 -41 0 -68 -4 -64 -9 3 -6 -25 -13 -65 -17 -39 -4 -73 -11
-76 -15 -7 -12 -744 -12 -744 0 0 4 -30 11 -67 14 -37 3 -69 10 -71 16 -2 7
-31 11 -72 11 -38 0 -71 4 -74 9 -3 4 -26 11 -52 14 -26 2 -49 9 -53 15 -3 5
-22 12 -41 15 -77 12 -125 26 -128 36 -2 6 -16 11 -31 11 -15 0 -31 4 -37 10
-5 5 -22 11 -38 12 -15 1 -32 8 -38 15 -6 7 -21 13 -34 13 -13 0 -24 4 -24 9
0 5 -13 12 -30 16 -16 4 -30 11 -30 16 0 5 -16 9 -35 9 -19 0 -35 4 -35 10 0
5 -11 12 -25 16 -14 3 -25 10 -25 15 0 5 -9 9 -20 9 -11 0 -20 5 -20 10 0 6
-9 10 -19 10 -11 0 -26 7 -35 15 -8 8 -19 15 -25 15 -6 0 -11 4 -11 10 0 5
-11 12 -25 16 -14 3 -25 10 -25 15 0 5 -9 9 -20 9 -19 0 -29 6 -65 38 -7 6
-19 12 -25 12 -10 0 -21 8 -55 38 -7 6 -16 12 -20 12 -6 0 -19 10 -50 38 -7 6
-18 12 -24 12 -6 0 -11 4 -11 10 0 5 -11 12 -25 16 -14 3 -25 10 -25 15 0 5
-7 9 -16 9 -8 0 -12 4 -9 10 3 6 -1 10 -9 10 -9 0 -16 7 -16 15 0 8 -5 15 -10
15 -10 0 -22 8 -55 37 -7 7 -18 13 -24 13 -6 0 -11 7 -11 15 0 8 -5 15 -11 15
-6 0 -30 20 -53 44 -24 24 -53 49 -65 55 -11 7 -21 18 -21 26 0 8 -7 15 -15
15 -8 0 -15 7 -15 16 0 8 -4 12 -10 9 -5 -3 -10 1 -10 9 0 9 -7 16 -15 16 -8
0 -15 5 -15 11 0 6 -16 25 -35 43 -19 19 -35 37 -35 40 0 11 -27 36 -39 36 -6
0 -11 11 -11 25 0 14 -6 25 -12 25 -14 1 -68 73 -68 90 0 6 -4 10 -10 10 -5 0
-10 6 -10 14 0 8 -7 16 -15 20 -8 3 -15 12 -15 21 0 8 -4 15 -10 15 -5 0 -10
7 -10 15 0 8 -3 15 -7 15 -10 0 -43 58 -43 75 0 7 -7 15 -15 19 -8 3 -15 12
-15 21 0 8 -4 15 -10 15 -5 0 -10 11 -10 25 0 14 -4 25 -10 25 -5 0 -12 11
-16 25 -3 14 -10 25 -15 25 -5 0 -9 9 -9 21 0 11 -7 27 -15 35 -8 9 -15 26
-15 40 0 13 -4 24 -10 24 -5 0 -10 11 -10 25 0 14 -4 25 -10 25 -5 0 -12 16
-16 35 -3 19 -10 35 -15 35 -5 0 -9 21 -9 46 0 27 -6 51 -15 60 -8 9 -15 31
-15 50 0 21 -4 33 -10 29 -6 -4 -10 23 -10 74 0 54 -4 81 -12 83 -10 4 -14
477 -16 2311 l-2 2307 2790 0 2790 0 0 -2321z"/>
<path d="M5743 8085 c-7 -8 -13 -19 -13 -25 0 -5 -5 -10 -11 -10 -7 0 -22 -11
-35 -25 -13 -14 -30 -25 -39 -25 -8 0 -15 -4 -15 -10 0 -6 -39 -10 -96 -10
-61 0 -93 4 -89 10 4 6 -13 10 -44 10 -27 0 -51 -4 -53 -10 -1 -5 -18 -10 -35
-12 -18 -1 -33 -5 -33 -9 0 -4 -11 -10 -25 -13 -14 -4 -25 -11 -25 -16 0 -6
-7 -10 -15 -10 -8 0 -15 -5 -15 -11 0 -14 -25 -39 -39 -39 -6 0 -11 -7 -11
-16 0 -8 -6 -22 -12 -29 -33 -37 -38 -46 -38 -75 0 -18 -4 -29 -10 -25 -6 4
-10 -20 -10 -64 0 -41 4 -71 10 -71 6 0 10 4 10 10 0 15 33 50 42 44 4 -3 8 2
8 10 0 10 9 16 25 16 14 0 25 5 25 10 0 6 11 10 25 10 14 0 25 -4 25 -10 0 -5
-4 -10 -9 -10 -5 0 -12 -13 -16 -30 -4 -16 -11 -30 -16 -30 -5 0 -9 -9 -9 -19
0 -11 -4 -23 -10 -26 -5 -3 -10 -18 -10 -33 -1 -15 -7 -38 -15 -52 -8 -14 -14
-51 -15 -82 l0 -58 -135 0 c-83 0 -135 -4 -135 -10 0 -5 5 -10 10 -10 6 0 10
-5 10 -10 0 -6 11 -23 25 -38 14 -15 25 -32 25 -39 0 -7 7 -13 15 -13 8 0 14
-3 12 -8 -1 -4 10 -21 26 -37 15 -16 27 -35 27 -42 0 -7 5 -13 10 -13 6 0 10
-53 10 -139 0 -93 4 -141 11 -143 12 -4 28 -216 35 -485 5 -163 4 -173 -16
-193 -11 -11 -26 -20 -34 -20 -8 0 -17 -7 -20 -16 -3 -8 -10 -12 -16 -9 -5 3
-10 1 -10 -5 0 -6 -11 -23 -25 -38 -14 -15 -25 -32 -25 -39 0 -7 -4 -13 -9
-13 -5 0 -12 -11 -15 -25 -4 -14 -11 -25 -16 -25 -6 0 -10 -50 -10 -125 0
-104 2 -125 15 -125 8 0 15 -7 15 -15 0 -8 5 -15 10 -15 6 0 10 -12 10 -26 0
-14 4 -23 8 -20 9 6 42 -29 42 -44 0 -6 7 -10 15 -10 8 0 15 -4 15 -10 0 -5
11 -10 25 -10 14 0 25 -3 25 -8 0 -4 16 -16 35 -26 19 -11 35 -25 35 -33 0 -7
5 -13 10 -13 6 0 10 -15 10 -34 0 -53 9 -66 44 -66 17 0 36 4 42 8 12 8 28
269 18 296 -5 12 -20 16 -65 16 l-59 0 0 -45 c0 -42 -2 -45 -26 -45 -26 0 -54
20 -54 39 0 6 -4 11 -10 11 -6 0 -10 29 -10 66 0 41 4 63 10 59 6 -3 10 1 10
9 0 9 7 16 15 16 8 0 15 4 15 10 0 5 23 12 50 16 28 4 50 10 50 15 0 5 36 9
81 9 81 0 81 0 92 -30 6 -16 15 -30 19 -30 4 0 8 -8 8 -19 0 -10 7 -32 15 -47
8 -16 15 -39 15 -51 0 -13 5 -23 10 -23 6 0 10 -11 10 -25 0 -14 5 -25 10 -25
6 0 10 -7 10 -15 0 -8 4 -15 10 -15 18 0 70 59 70 80 0 11 4 20 9 20 5 0 16 3
25 6 9 3 16 1 16 -5 0 -7 11 -22 25 -35 14 -13 25 -27 25 -32 0 -5 11 -21 25
-36 14 -15 25 -32 25 -38 0 -5 5 -10 11 -10 13 0 39 -25 39 -39 0 -5 11 -21
25 -35 14 -14 25 -28 25 -31 0 -3 11 -16 25 -29 14 -13 25 -26 25 -30 0 -7 10
-20 38 -51 6 -7 12 -19 12 -25 0 -6 4 -9 8 -6 8 5 42 -28 42 -40 0 -3 6 -12
13 -19 29 -33 37 -45 37 -55 0 -5 7 -10 15 -10 8 0 15 -5 15 -10 0 -6 11 -22
25 -36 14 -14 25 -32 25 -40 0 -8 5 -12 10 -9 6 3 10 1 10 -5 0 -6 11 -21 25
-34 18 -17 25 -34 25 -60 0 -21 4 -35 9 -32 5 4 12 -7 16 -24 4 -16 11 -30 16
-30 5 0 9 -9 9 -21 0 -11 6 -27 13 -34 23 -26 33 -40 40 -55 20 -41 34 -59 40
-53 4 3 7 -1 7 -11 0 -9 11 -27 25 -40 14 -13 25 -29 25 -35 0 -7 4 -10 9 -7
4 3 14 -7 21 -22 9 -19 14 -23 18 -12 3 8 16 26 29 39 12 14 23 34 23 44 0 10
5 15 10 12 6 -3 10 1 10 9 0 9 7 16 15 16 8 0 15 8 15 19 0 10 11 30 25 45 14
15 25 31 25 37 0 5 9 18 20 29 24 24 80 27 80 5 0 -8 -4 -15 -9 -15 -4 0 -11
-21 -14 -47 -3 -26 -10 -49 -16 -51 -6 -2 -11 -19 -11 -38 0 -19 -4 -34 -9
-34 -5 0 -11 -18 -15 -40 -4 -23 -11 -38 -16 -35 -6 4 -10 -12 -10 -39 0 -25
-4 -46 -10 -46 -5 0 -10 -11 -10 -24 0 -14 -7 -31 -15 -40 -8 -8 -15 -30 -15
-50 0 -19 -4 -37 -9 -40 -4 -3 -11 -24 -15 -46 -3 -22 -11 -40 -16 -40 -6 0
-10 -16 -10 -36 0 -21 -4 -33 -10 -29 -6 4 -10 -8 -10 -29 0 -19 -7 -41 -15
-50 -8 -8 -15 -31 -15 -50 0 -20 -4 -36 -10 -36 -5 0 -10 -11 -10 -24 0 -14
-7 -31 -15 -40 -8 -8 -15 -32 -15 -55 0 -24 -7 -49 -17 -61 -21 -24 -33 -26
-33 -5 0 8 -4 15 -9 15 -5 0 -13 9 -16 20 -4 11 -10 18 -14 16 -4 -3 -14 4
-21 15 -8 10 -20 19 -27 19 -7 0 -13 4 -13 10 0 5 -11 12 -25 16 -14 3 -25 10
-25 15 0 5 -16 9 -35 9 -19 0 -35 5 -35 10 0 6 -31 10 -74 10 -41 0 -78 -4
-81 -10 -3 -5 -16 -10 -29 -10 -12 0 -27 -5 -34 -12 -6 -6 -21 -13 -33 -15
-12 -2 -31 -13 -42 -26 -10 -12 -23 -21 -28 -20 -5 2 -9 -2 -9 -8 0 -7 -11
-22 -25 -35 -14 -13 -25 -30 -25 -38 0 -8 -4 -18 -10 -21 -5 -3 -10 -15 -10
-25 0 -10 -7 -25 -15 -34 -11 -11 -15 -38 -15 -101 0 -63 4 -90 15 -101 8 -9
15 -26 15 -40 0 -13 5 -24 10 -24 6 0 10 -6 10 -14 0 -18 63 -86 79 -86 6 0
14 -7 17 -15 4 -8 10 -13 14 -10 4 3 10 -2 14 -10 3 -8 17 -15 31 -15 14 0 25
-4 25 -9 0 -12 103 -22 114 -11 5 5 -6 25 -30 49 -56 58 -64 68 -64 86 0 9 -4
14 -9 11 -11 -7 -21 28 -21 79 0 39 24 75 50 75 6 0 10 6 10 13 0 9 3 8 9 -2
7 -10 10 -10 13 -1 5 15 184 27 240 16 28 -5 34 -11 36 -34 1 -15 7 -28 12
-30 6 -2 10 -16 10 -32 0 -16 7 -30 15 -34 8 -3 15 -17 15 -31 0 -14 5 -25 10
-25 6 0 10 -9 10 -20 0 -26 17 -26 25 0 3 11 11 20 16 20 5 0 9 9 9 21 0 11 5
17 10 14 6 -3 10 1 10 9 0 9 7 16 15 16 9 0 15 10 15 26 0 14 4 23 10 19 6 -3
10 1 10 9 0 9 7 16 15 16 8 0 15 7 15 16 0 20 35 66 44 57 3 -3 6 1 6 10 0 10
4 17 9 17 5 0 12 11 15 25 4 14 11 25 16 25 6 0 10 5 10 11 0 7 11 22 25 35
14 13 25 28 25 35 0 6 11 22 25 35 14 13 25 30 25 39 0 9 5 13 10 10 6 -3 10
1 10 10 0 8 7 18 15 21 8 4 15 12 15 20 0 8 4 14 10 14 5 0 12 11 16 25 3 14
10 22 15 19 5 -3 9 0 9 7 0 6 11 22 25 35 14 13 25 30 25 39 0 19 23 45 39 45
6 0 11 7 11 15 0 8 4 15 9 15 5 0 12 11 15 25 4 14 11 23 16 20 6 -3 10 1 10
9 0 9 5 16 10 16 6 0 10 7 10 15 0 9 7 18 15 21 8 4 15 13 15 21 0 9 11 26 25
39 14 13 25 30 25 39 0 13 20 15 140 15 l140 0 -7 -32 c-3 -18 -10 -34 -15
-36 -11 -5 -10 -202 1 -202 6 0 13 -32 17 -70 4 -39 11 -73 15 -76 5 -3 9 -21
9 -40 0 -20 7 -42 15 -50 8 -9 15 -24 15 -35 0 -10 5 -19 10 -19 6 0 10 -11
10 -25 0 -14 9 -35 20 -47 10 -12 17 -25 14 -30 -3 -4 0 -8 5 -8 6 0 11 -7 11
-15 0 -8 4 -15 9 -15 5 0 13 -10 17 -22 4 -13 22 -37 40 -55 19 -17 34 -39 34
-47 0 -9 5 -16 11 -16 6 0 22 -14 36 -30 13 -17 31 -30 39 -30 8 0 14 -6 14
-13 0 -8 11 -20 25 -27 14 -7 25 -17 25 -22 0 -4 7 -8 15 -8 8 0 15 -7 15 -16
0 -8 4 -13 9 -9 5 3 16 -2 24 -10 9 -8 20 -15 26 -15 6 0 11 -4 11 -10 0 -5
11 -12 25 -16 14 -3 25 -10 25 -15 0 -5 10 -9 23 -9 13 0 32 -7 43 -15 10 -8
29 -15 42 -15 12 0 22 -4 22 -9 0 -4 23 -11 52 -14 28 -4 56 -11 62 -17 13
-13 393 -14 401 0 3 5 32 12 65 16 33 4 57 10 54 15 -4 8 31 14 39 7 1 -2 13
5 27 15 13 9 32 17 42 17 10 0 18 3 18 8 0 4 18 16 40 26 22 11 40 23 40 28 0
4 9 8 20 8 11 0 23 7 26 15 4 8 10 15 15 15 10 0 38 22 90 71 21 20 40 34 43
32 2 -3 7 5 11 16 3 12 11 21 16 21 5 0 9 5 9 10 0 6 15 25 34 43 18 18 36 43
40 55 4 12 12 22 17 22 5 0 9 7 9 15 0 8 5 15 10 15 6 0 10 9 10 20 0 11 7 23
15 26 9 4 15 19 15 35 0 16 5 29 10 29 6 0 10 9 10 19 0 11 7 26 15 35 9 9 15
33 15 60 0 25 5 46 10 46 6 0 10 15 10 33 0 44 10 78 21 71 5 -3 9 52 9 126 0
74 -4 129 -9 126 -11 -7 -21 28 -21 77 0 20 -4 37 -10 37 -5 0 -10 18 -10 39
0 22 -4 41 -10 43 -9 3 -17 33 -19 66 -1 7 -5 10 -11 7 -6 -4 -10 7 -10 24 0
19 -5 31 -13 31 -7 0 -14 10 -14 22 -1 13 -7 24 -13 26 -5 2 -10 10 -10 18 0
8 -11 25 -25 38 -14 13 -25 33 -25 45 0 11 -5 21 -11 21 -6 0 -17 6 -25 14 -8
8 -14 19 -14 25 0 6 -7 11 -15 11 -8 0 -15 5 -15 11 0 12 -25 39 -37 39 -4 0
-17 11 -27 25 -10 14 -25 25 -33 25 -8 0 -12 4 -8 9 3 5 -4 12 -15 16 -11 3
-20 11 -20 16 0 5 -7 9 -15 9 -8 0 -15 4 -15 9 0 5 -11 12 -25 15 -14 4 -25
11 -25 16 0 6 -6 10 -14 10 -17 0 -80 32 -84 43 -2 4 -14 7 -27 7 -13 0 -25 4
-27 10 -1 5 -21 12 -43 16 -22 3 -41 10 -43 15 -2 5 -28 9 -58 9 -32 0 -53 4
-49 9 15 25 -292 28 -317 3 -7 -7 -29 -12 -49 -12 -21 0 -39 -5 -41 -12 -3 -9
-10 -8 -26 3 l-21 15 24 27 c14 14 25 35 25 47 0 16 -7 20 -37 20 -21 0 -47 7
-57 15 -11 8 -39 15 -63 15 -24 0 -43 5 -43 10 0 6 -18 10 -40 10 -22 0 -40 4
-40 10 0 5 -3 9 -7 8 -19 -3 -113 16 -113 23 0 5 -13 9 -30 9 -16 0 -30 4 -30
10 0 5 -18 13 -40 16 -22 4 -40 10 -40 15 0 5 -13 9 -30 9 -16 0 -30 4 -30 10
0 5 -11 12 -25 16 -14 3 -25 10 -25 15 0 5 -10 9 -21 9 -12 0 -32 11 -45 25
-13 14 -28 25 -34 25 -19 0 -91 84 -97 113 -3 15 -10 30 -14 33 -12 7 -11 54
1 54 6 0 10 7 10 15 0 12 13 15 61 15 37 0 58 4 54 10 -4 6 7 10 24 10 17 0
31 -4 31 -10 0 -5 7 -10 15 -10 9 0 15 -9 15 -25 0 -16 6 -25 15 -25 8 0 15
-7 15 -15 0 -8 5 -15 10 -15 6 0 10 -7 10 -16 0 -8 5 -12 10 -9 6 3 10 -1 10
-9 0 -9 7 -16 15 -16 8 0 15 -5 15 -11 0 -6 9 -22 20 -36 11 -14 20 -23 20
-19 0 5 27 -14 55 -41 8 -7 16 -13 20 -13 9 0 35 -27 35 -37 0 -5 9 -9 20 -10
11 -1 27 -9 36 -17 8 -9 22 -16 30 -16 8 0 14 -4 14 -10 0 -5 11 -10 25 -10
14 0 25 -6 25 -13 0 -7 10 -14 22 -14 13 -1 24 -7 26 -13 2 -5 18 -10 35 -10
18 0 41 -7 51 -15 11 -8 32 -15 47 -15 15 0 29 -4 31 -9 2 -5 73 -11 158 -12
224 -5 387 0 372 10 -9 5 7 10 44 13 32 3 60 10 62 16 2 7 21 12 43 12 21 0
39 5 39 10 0 6 15 10 34 10 18 0 39 7 46 15 7 8 18 15 25 15 7 0 25 7 41 14
15 8 31 13 36 10 4 -3 11 2 14 10 3 9 17 16 30 16 13 0 24 4 24 10 0 5 11 12
25 16 14 3 25 10 25 15 0 5 9 9 21 9 11 0 27 6 34 13 33 29 45 37 54 37 5 0
11 5 13 10 2 6 13 12 26 13 12 0 22 7 22 14 0 7 5 13 11 13 6 0 17 7 26 15 8
8 19 13 24 10 5 -4 9 1 9 9 0 9 5 16 11 16 6 0 24 14 41 30 16 17 33 28 38 25
5 -3 11 3 14 12 4 10 22 29 41 43 19 14 35 33 35 43 0 10 5 15 10 12 6 -3 13
1 16 9 3 9 10 13 15 10 5 -3 9 4 9 16 0 12 4 19 8 16 8 -5 42 28 42 40 0 4 11
17 25 30 14 13 25 28 25 34 0 6 4 9 9 6 5 -3 12 5 15 19 4 14 11 25 16 25 6 0
10 7 10 15 0 8 4 15 9 15 5 0 13 9 16 20 4 11 11 18 16 15 5 -4 9 3 9 14 0 12
4 21 9 21 5 0 12 11 15 25 4 14 11 25 16 25 6 0 10 6 10 13 0 23 31 78 41 72
5 -4 9 8 9 25 0 18 4 29 10 25 6 -3 10 5 10 19 0 13 7 31 15 40 8 8 15 28 15
45 0 17 5 31 10 31 6 0 10 11 10 25 0 14 7 28 15 31 11 4 15 21 15 55 0 27 5
49 10 49 6 0 10 17 10 38 0 20 7 50 15 66 8 15 15 54 15 87 0 32 5 61 10 64 6
4 10 77 10 186 0 113 -4 179 -10 179 -5 0 -10 11 -10 25 0 25 -1 25 -80 25
-47 0 -80 -4 -80 -10 0 -6 -29 -10 -67 -10 -41 0 -80 -6 -97 -15 -16 -9 -55
-15 -92 -15 -36 0 -64 -4 -64 -10 0 -6 -43 -10 -110 -10 -91 0 -110 -3 -110
-15 0 -12 -14 -15 -70 -15 -38 0 -70 -4 -70 -8 0 -5 -42 -12 -93 -15 -52 -3
-106 -11 -121 -17 -15 -5 -59 -10 -97 -10 -39 0 -69 -4 -69 -10 0 -5 -26 -10
-57 -10 -32 -1 -76 -7 -98 -15 -23 -9 -77 -15 -127 -15 -52 0 -88 -4 -88 -10
0 -5 -16 -10 -35 -10 -19 0 -52 -9 -72 -20 -20 -10 -41 -16 -46 -13 -6 3 -7 1
-3 -5 5 -8 0 -12 -13 -12 -23 0 -121 -94 -121 -115 0 -8 -4 -15 -10 -15 -5 0
-10 -11 -10 -25 0 -14 -4 -25 -10 -25 -5 0 -10 -12 -10 -27 0 -38 -10 -73 -21
-73 -5 0 -9 7 -9 16 0 8 -4 13 -9 9 -5 -3 -13 20 -16 50 -4 30 -11 55 -16 55
-5 0 -9 11 -9 25 0 14 -4 25 -9 25 -5 0 -12 11 -15 25 -4 14 -11 25 -16 25 -6
0 -10 10 -10 21 0 12 -11 32 -25 45 -14 13 -25 30 -25 39 0 8 -7 15 -15 15 -8
0 -15 7 -15 16 0 8 -4 12 -10 9 -5 -3 -10 -2 -10 4 0 14 -56 71 -70 71 -5 0
-10 4 -10 9 0 5 -8 12 -17 15 -10 3 -31 17 -47 31 -16 14 -35 25 -43 25 -7 0
-13 5 -13 10 0 6 -10 10 -23 10 -12 0 -31 6 -42 13 -11 7 -33 14 -50 16 -16 1
-31 7 -33 12 -2 5 -26 9 -52 9 -27 0 -51 4 -54 8 -20 33 -966 13 -966 -19 0
-5 5 -9 10 -9 6 0 10 -16 10 -36 0 -19 7 -42 15 -50 8 -9 15 -26 15 -40 0 -13
5 -24 10 -24 6 0 10 -12 10 -26 0 -14 7 -32 15 -40 8 -9 15 -24 15 -35 0 -18
12 -19 323 -21 l322 -3 3 -28 c2 -15 8 -25 13 -22 5 4 9 -27 9 -74 0 -65 -3
-81 -15 -81 -8 0 -15 -4 -15 -10 0 -6 -35 -10 -85 -10 -50 0 -85 4 -85 10 0 6
-18 10 -39 10 -22 0 -46 7 -55 15 -8 8 -24 15 -35 15 -12 0 -21 5 -21 10 0 6
-16 10 -36 10 -19 0 -42 7 -50 15 -9 8 -26 15 -40 15 -13 0 -24 5 -24 10 0 6
-15 10 -34 10 -19 0 -38 5 -41 10 -3 6 -15 10 -26 10 -14 0 -19 -7 -19 -26 0
-14 4 -23 10 -19 6 4 10 -8 10 -30 0 -20 7 -43 15 -51 8 -9 15 -24 15 -35 0
-10 5 -19 10 -19 6 0 10 -14 10 -31 0 -17 7 -37 15 -45 8 -9 15 -24 15 -35 0
-18 10 -19 309 -19 300 0 309 -1 314 -20 3 -11 3 -29 0 -40 -5 -18 -14 -20
-87 -20 -44 -1 -99 -7 -121 -15 -22 -8 -52 -15 -67 -15 -16 0 -28 -4 -28 -10
0 -5 -10 -10 -22 -10 -13 0 -32 -7 -42 -15 -11 -8 -30 -15 -43 -15 -13 0 -23
-4 -23 -10 0 -5 -11 -10 -25 -10 -14 0 -25 -4 -25 -9 0 -5 -10 -13 -22 -17
-13 -4 -25 -10 -28 -13 -8 -11 -89 -61 -98 -61 -4 0 -15 -8 -23 -17 -27 -30
-57 -52 -63 -46 -3 4 -6 1 -6 -5 0 -7 -7 -12 -15 -12 -8 0 -15 -5 -15 -10 0
-6 -22 -34 -50 -62 -27 -28 -50 -55 -50 -60 0 -13 -26 -38 -39 -38 -6 0 -11
-7 -11 -15 0 -8 -4 -15 -10 -15 -5 0 -12 -11 -16 -25 -3 -14 -10 -25 -15 -25
-5 0 -9 -7 -9 -16 0 -8 -4 -12 -10 -9 -6 4 -10 -5 -10 -19 0 -16 -6 -26 -15
-26 -9 0 -15 -9 -15 -22 0 -13 -7 -32 -15 -42 -8 -10 -12 -23 -9 -28 3 -4 -2
-11 -10 -14 -10 -4 -16 -19 -16 -40 0 -19 -4 -34 -10 -34 -5 0 -10 -11 -10
-24 0 -14 -7 -31 -15 -40 -10 -10 -15 -35 -15 -75 0 -34 -4 -61 -10 -61 -5 0
-10 -15 -10 -34 0 -19 -3 -41 -6 -50 -8 -21 -54 -21 -54 -1 0 8 -4 15 -10 15
-5 0 -10 21 -10 46 0 27 -6 51 -15 60 -8 9 -15 33 -15 55 0 21 -4 39 -10 39
-5 0 -10 15 -10 34 0 19 -4 37 -9 40 -4 3 -11 19 -14 35 -4 18 -14 32 -27 36
-11 3 -20 11 -20 16 0 5 -8 9 -19 9 -10 0 -24 7 -31 15 -7 8 -16 12 -21 9 -5
-3 -9 2 -9 10 0 10 -9 16 -25 16 -16 0 -25 6 -25 15 0 8 -7 15 -15 15 -15 0
-54 19 -65 31 -3 3 -30 20 -60 38 -30 19 -57 37 -60 41 -3 4 -15 10 -27 14
-13 4 -23 12 -23 17 0 5 -7 9 -15 9 -8 0 -15 5 -15 10 0 6 -6 10 -14 10 -7 0
-19 7 -26 15 -7 8 -21 15 -31 15 -11 0 -19 4 -19 9 0 5 -12 11 -27 13 l-28 3
3 80 c2 44 8 84 13 89 5 6 9 88 9 183 0 95 4 173 9 173 5 0 11 56 12 125 3 82
8 128 17 137 7 7 12 40 12 86 0 72 12 102 39 102 6 0 11 7 11 15 0 9 11 26 25
39 14 13 25 27 25 31 0 4 11 18 25 31 14 13 25 30 25 39 0 13 -24 15 -175 15
-169 0 -175 1 -175 20 0 23 64 90 86 90 8 0 14 5 14 10 0 6 12 10 26 10 14 0
23 4 20 9 -3 5 13 12 37 16 23 4 51 10 62 12 11 3 49 4 85 2 147 -8 357 3 370
20 3 3 23 15 44 26 22 11 50 30 62 43 13 12 28 22 34 22 5 0 10 9 10 20 0 11
5 20 10 20 6 0 10 9 10 19 0 11 7 26 15 35 8 8 15 30 15 48 0 19 4 38 9 44 13
13 22 234 9 234 -13 0 -38 -26 -38 -39 0 -6 -5 -11 -11 -11 -6 0 -25 -16 -43
-35 -19 -19 -37 -35 -40 -35 -4 0 -14 -7 -22 -15 -12 -11 -40 -15 -115 -15
l-99 0 0 50 c0 28 5 50 10 50 6 0 10 23 10 50 0 52 -6 59 -27 35z m2233 -1460
c3 -14 10 -25 15 -25 5 0 9 -15 9 -34 0 -21 6 -36 15 -40 8 -3 15 -13 15 -22
0 -19 37 -54 57 -54 7 0 13 -6 13 -13 0 -8 11 -20 25 -27 14 -7 25 -17 25 -22
0 -4 9 -8 20 -8 10 0 23 -7 28 -16 5 -9 12 -15 15 -15 31 4 37 -1 37 -34 0
-20 -5 -41 -10 -48 -44 -52 -60 -73 -60 -79 0 -5 -7 -8 -15 -8 -8 0 -15 -7
-15 -15 0 -8 -7 -15 -16 -15 -8 0 -12 -4 -9 -10 3 -5 1 -10 -5 -10 -12 0 -32
-15 -58 -42 -9 -10 -22 -18 -29 -18 -7 0 -13 -4 -13 -10 0 -5 -9 -10 -20 -10
-11 0 -20 -4 -20 -10 0 -5 -6 -10 -14 -10 -8 0 -16 -7 -20 -15 -3 -8 -15 -15
-26 -15 -11 0 -20 -4 -20 -10 0 -5 -6 -10 -14 -10 -7 0 -19 -7 -26 -15 -7 -8
-23 -15 -36 -15 -13 0 -24 -4 -24 -9 0 -5 -11 -12 -25 -15 -14 -4 -25 -11 -25
-16 0 -6 -16 -10 -35 -10 -19 0 -35 -4 -35 -9 0 -5 -16 -12 -36 -15 -19 -4
-41 -9 -48 -12 -29 -11 -26 29 4 57 16 16 32 29 34 29 6 0 66 60 66 66 0 10
28 34 39 34 6 0 11 7 11 15 0 8 4 15 10 15 5 0 12 11 16 25 3 14 10 25 15 25
5 0 9 5 9 10 0 10 8 22 38 55 6 7 12 23 12 34 0 12 4 21 9 21 5 0 12 14 16 30
4 17 11 28 16 24 5 -3 9 11 9 30 0 19 4 37 9 40 5 4 12 29 16 56 4 27 11 52
16 56 5 3 9 41 9 85 0 77 13 105 26 54z m284 -2121 c19 -4 38 -11 41 -16 3 -5
16 -10 27 -11 12 -1 22 -7 22 -14 0 -7 11 -13 25 -13 18 0 25 -5 25 -18 0 -11
11 -24 25 -30 14 -6 25 -19 25 -27 0 -9 7 -23 15 -31 8 -9 15 -24 15 -34 0
-10 5 -22 10 -25 6 -3 10 -52 10 -111 0 -63 -4 -104 -10 -104 -5 0 -10 -8 -10
-19 0 -10 -7 -24 -15 -31 -8 -7 -15 -21 -15 -32 0 -10 -4 -16 -10 -13 -5 3
-10 -1 -10 -9 0 -9 -5 -16 -11 -16 -7 0 -22 -11 -35 -25 -13 -14 -32 -25 -44
-25 -11 0 -20 -4 -20 -9 0 -4 -19 -16 -43 -25 -45 -17 -177 -22 -177 -7 0 5
-16 12 -35 15 -19 4 -35 11 -35 16 0 6 -7 10 -15 10 -8 0 -15 4 -15 9 0 5 -11
12 -25 15 -14 4 -25 13 -25 22 0 8 -4 13 -9 10 -5 -3 -12 5 -15 19 -4 14 -11
25 -16 25 -6 0 -10 7 -10 15 0 8 -4 15 -8 15 -5 0 -16 17 -25 38 -19 43 -24
196 -7 207 6 3 10 17 10 31 0 15 6 24 15 24 8 0 15 5 15 10 0 6 -40 10 -99 10
-55 0 -101 4 -103 9 -2 7 -220 20 -355 21 -18 0 -33 5 -33 10 0 6 14 10 31 10
17 0 37 7 45 15 11 10 36 15 84 15 38 0 72 5 75 10 3 6 32 10 63 10 31 0 88 7
127 15 38 8 107 15 152 15 49 0 83 4 83 10 0 6 33 10 79 10 48 0 83 4 87 11 6
11 35 9 124 -7z"/>
<path d="M7035 8040 c3 -5 -3 -10 -14 -10 -12 0 -21 -5 -21 -11 0 -14 -76 -89
-90 -89 -5 0 -10 -5 -10 -11 0 -6 -6 -17 -14 -25 -8 -8 -19 -14 -25 -14 -6 0
-11 -6 -11 -14 0 -8 -6 -17 -12 -20 -10 -5 -10 -7 0 -12 6 -3 12 -12 12 -20 0
-9 4 -13 8 -10 9 6 42 -29 42 -44 0 -6 5 -10 11 -10 13 0 39 -25 39 -38 0 -5
11 -15 25 -22 14 -7 25 -19 25 -27 0 -7 6 -13 14 -13 8 0 16 -6 18 -12 5 -15
38 13 38 31 0 6 7 11 15 11 8 0 15 6 15 13 0 8 11 20 25 27 14 7 25 17 25 22
0 12 26 38 38 38 5 0 15 11 22 25 7 14 19 25 27 25 7 0 13 5 13 10 0 6 -7 10
-15 10 -8 0 -15 7 -15 16 0 8 -4 12 -10 9 -5 -3 -10 1 -10 9 0 9 -7 16 -15 16
-8 0 -15 5 -15 11 0 6 -6 17 -14 25 -8 8 -19 14 -25 14 -6 0 -11 7 -11 16 0 8
-4 12 -10 9 -5 -3 -10 1 -10 9 0 9 -7 16 -15 16 -8 0 -15 7 -15 16 0 8 -4 12
-10 9 -5 -3 -10 1 -10 9 0 9 -5 16 -11 16 -5 0 -7 -4 -4 -10z"/>
<path d="M6622 7778 l3 -123 114 -3 c63 -1 121 0 128 3 15 5 -217 245 -237
245 -7 0 -10 -41 -8 -122z"/>
<path d="M7430 7890 c0 -5 -7 -10 -15 -10 -8 0 -15 -6 -15 -13 0 -8 -11 -20
-25 -27 -14 -7 -25 -17 -25 -22 0 -13 -26 -38 -39 -38 -6 0 -11 -5 -11 -11 0
-6 -6 -17 -14 -25 -8 -8 -19 -14 -25 -14 -6 0 -11 -5 -11 -11 0 -6 -6 -17 -14
-25 -8 -8 -19 -14 -25 -14 -6 0 -11 -7 -11 -15 0 -13 21 -15 125 -15 81 0 125
4 125 11 0 5 5 7 10 4 6 -3 10 -2 10 4 0 5 -6 12 -12 14 -10 4 -9 8 2 16 13
10 13 12 1 20 -12 8 -13 16 -3 48 7 22 8 39 3 41 -6 2 -5 15 1 33 5 16 7 36 4
44 -6 17 -36 21 -36 5z"/>
<path d="M6620 7505 c0 -42 2 -45 28 -46 15 0 199 -1 408 -1 422 -2 414 -3
414 61 l0 31 -425 0 -425 0 0 -45z"/>
<path d="M6018 7163 c-21 -9 -38 -20 -38 -24 0 -5 -6 -9 -14 -9 -8 0 -16 -7
-20 -15 -3 -8 -14 -15 -25 -15 -11 0 -23 -4 -26 -10 -3 -5 -37 -10 -76 -10
-39 0 -69 4 -69 10 0 6 -11 10 -25 10 -20 0 -25 -5 -25 -25 0 -16 6 -25 16
-25 8 0 13 -4 10 -9 -3 -5 1 -14 9 -21 8 -7 15 -19 15 -26 0 -8 4 -14 10 -14
5 0 12 -11 16 -24 5 -21 48 -52 67 -48 4 1 7 -5 7 -13 0 -12 17 -15 90 -15 50
0 90 4 90 9 0 5 16 12 35 15 19 4 35 11 35 16 0 6 11 10 25 10 14 0 25 4 25
10 0 5 11 12 25 16 14 3 25 10 25 15 0 5 13 9 29 9 17 0 33 5 36 10 3 6 29 10
56 10 31 0 48 -4 44 -10 -4 -6 7 -10 24 -10 17 0 31 -4 31 -10 0 -5 7 -10 15
-10 8 0 15 5 15 10 0 6 -4 10 -10 10 -5 0 -12 11 -16 25 -3 14 -10 25 -15 25
-5 0 -9 7 -9 16 0 8 -4 12 -10 9 -5 -3 -10 1 -10 9 0 9 -7 16 -15 16 -8 0 -15
8 -15 17 0 9 -3 14 -6 10 -3 -3 -16 5 -29 19 -12 13 -32 24 -43 24 -11 0 -22
6 -24 13 -7 19 -184 20 -230 0z"/>
<path d="M5341 6354 c0 -11 3 -14 6 -6 3 7 2 16 -1 19 -3 4 -6 -2 -5 -13z"/>
<path d="M9900 5855 c0 -14 -4 -25 -10 -25 -5 0 -10 -9 -10 -20 0 -11 -7 -23
-15 -26 -8 -4 -15 -17 -15 -30 0 -13 -4 -24 -10 -24 -5 0 -10 -7 -10 -15 0 -8
-7 -15 -15 -15 -9 0 -15 -9 -15 -25 0 -14 -5 -25 -11 -25 -13 0 -39 -25 -39
-38 0 -5 -11 -15 -25 -22 -14 -7 -25 -19 -25 -27 0 -7 -3 -13 -7 -13 -5 0 -24
-13 -43 -30 -19 -16 -36 -27 -38 -25 -2 2 -14 -7 -27 -21 -12 -13 -30 -24 -39
-24 -9 0 -16 -4 -16 -9 0 -5 -11 -12 -25 -15 -14 -4 -25 -11 -25 -16 0 -6 -11
-10 -25 -10 -14 0 -25 -4 -25 -9 0 -5 -18 -11 -40 -15 -22 -3 -40 -11 -40 -16
0 -6 -14 -10 -30 -10 -17 0 -38 -4 -48 -9 -9 -6 -38 -13 -64 -16 -26 -3 -50
-10 -53 -16 -4 -5 -51 -9 -105 -9 -55 0 -102 -4 -105 -10 -4 -6 -57 -10 -126
-10 -99 0 -119 -3 -119 -15 0 -9 9 -15 21 -15 12 0 30 -10 41 -22 10 -12 26
-23 36 -24 9 -2 18 -8 20 -13 2 -6 10 -11 18 -11 8 0 14 -7 14 -15 0 -8 4 -14
8 -12 10 3 142 -129 142 -142 0 -6 4 -11 10 -11 5 0 12 -11 16 -25 3 -14 10
-25 15 -25 5 0 9 -7 9 -16 0 -14 8 -15 48 -9 26 4 49 11 50 16 2 5 15 9 28 9
15 0 24 6 24 15 0 9 9 15 25 15 14 0 25 5 25 10 0 6 9 10 20 10 11 0 23 7 26
15 4 8 12 15 19 15 7 0 18 7 25 15 7 8 15 13 19 10 4 -2 15 5 24 16 10 11 23
17 29 13 7 -4 8 -3 4 4 -6 11 6 16 27 13 4 0 7 6 7 14 0 8 7 15 16 15 8 0 13
4 10 9 -3 5 5 12 19 15 14 4 25 11 25 16 0 6 5 10 11 10 14 0 39 25 39 39 0 6
7 11 15 11 8 0 15 7 15 16 0 8 5 12 10 9 6 -3 10 1 10 9 0 9 7 16 15 16 8 0
15 6 15 13 0 7 11 24 25 39 14 15 25 30 25 33 0 6 11 20 38 50 6 7 12 21 12
30 0 9 4 14 9 11 5 -3 12 5 15 19 4 14 11 25 16 25 6 0 10 11 10 25 0 14 4 25
9 25 5 0 12 11 15 25 4 14 11 25 16 25 6 0 10 16 10 35 0 19 5 35 10 35 6 0
10 9 10 19 0 11 7 26 15 35 8 8 15 31 15 50 0 20 5 36 10 36 6 0 10 16 10 35
0 19 -4 35 -10 35 -5 0 -10 -11 -10 -25z"/>
<path d="M7180 2841 c0 -5 -12 -12 -26 -15 -36 -9 -73 -50 -76 -83 -4 -59 2
-82 22 -88 12 -4 20 -15 20 -28 0 -13 -9 -29 -20 -37 -11 -8 -20 -20 -20 -26
0 -7 -8 -20 -17 -30 -13 -13 -14 -19 -5 -22 6 -2 12 -10 12 -17 0 -25 23 -65
37 -65 7 0 16 -7 20 -15 7 -21 123 -19 123 2 0 7 5 13 11 13 14 0 39 25 39 39
0 6 5 11 10 11 6 0 10 20 10 45 0 25 -4 45 -10 45 -5 0 -10 7 -10 15 0 8 -5
15 -11 15 -11 0 -39 24 -39 34 0 12 34 45 42 40 4 -3 8 24 8 60 0 50 -3 66
-14 66 -8 0 -16 5 -18 10 -2 6 -17 13 -33 16 -17 3 -31 9 -33 15 -5 12 -22 12
-22 0z m48 -88 c2 -13 8 -23 13 -23 5 0 9 -7 9 -15 0 -8 -4 -15 -9 -15 -5 0
-12 -11 -15 -25 -4 -15 -13 -25 -24 -25 -21 1 -52 23 -52 39 0 6 -4 11 -10 11
-16 0 -11 38 8 60 24 29 76 24 80 -7z m-7 -182 c16 -16 29 -40 29 -54 0 -25
-32 -62 -43 -50 -4 3 -7 1 -7 -5 0 -7 -11 -11 -25 -10 -14 1 -25 6 -25 11 0 5
-7 16 -16 24 -11 11 -14 27 -11 49 11 68 51 82 98 35z"/>
<path d="M6720 2823 c-8 -4 -22 -14 -30 -23 -8 -9 -25 -20 -37 -24 -11 -4 -24
-14 -27 -22 -3 -8 -10 -12 -16 -9 -6 4 -10 -5 -10 -19 0 -21 5 -26 23 -26 13
0 32 9 42 20 10 11 22 20 27 20 4 0 8 -61 8 -135 l0 -135 -34 0 c-36 0 -48
-15 -39 -49 5 -19 12 -21 98 -21 114 0 125 4 125 41 0 27 -3 29 -40 29 l-40 0
0 180 c0 193 0 192 -50 173z"/>
<path d="M7586 2815 c-8 -8 -19 -15 -25 -15 -6 0 -11 -6 -11 -14 0 -8 -4 -16
-9 -18 -5 -1 -11 -21 -14 -43 -3 -22 -10 -41 -16 -43 -14 -5 -15 -122 -1 -122
5 0 13 -18 16 -40 4 -22 11 -43 15 -46 5 -3 9 -14 9 -25 0 -10 6 -19 14 -19 7
0 19 -7 26 -15 20 -24 101 -20 133 8 15 12 27 28 27 35 0 7 4 12 9 12 5 0 12
14 16 30 4 17 11 30 16 30 5 0 9 43 9 95 0 52 -4 95 -9 95 -5 0 -12 14 -16 30
-4 17 -11 28 -16 24 -5 -3 -9 1 -9 8 0 39 -131 66 -164 33z m98 -41 c9 -3 16
-14 16 -24 0 -10 6 -20 12 -22 9 -3 14 -34 17 -92 4 -97 -14 -155 -55 -177
-30 -15 -74 13 -74 48 0 13 -7 31 -16 40 -19 20 -17 153 4 153 6 0 12 11 12
25 0 45 37 67 84 49z"/>
<path d="M8127 2797 c-15 -15 -27 -32 -27 -37 0 -6 -4 -10 -10 -10 -5 0 -10
-6 -10 -13 0 -8 -11 -27 -25 -43 -14 -16 -28 -37 -31 -46 -3 -10 -10 -18 -15
-18 -5 0 -9 -5 -9 -11 0 -7 -11 -22 -25 -35 -14 -13 -25 -30 -25 -39 0 -14 50
-18 188 -15 4 0 9 -28 12 -62 4 -55 8 -63 25 -63 17 0 21 8 25 63 3 34 8 62
13 62 54 -1 57 0 57 25 0 19 -5 25 -21 25 -41 0 -49 22 -49 138 0 108 0 110
-23 108 -12 0 -35 -14 -50 -29z m23 -147 c0 -33 -4 -50 -12 -50 -9 0 -8 -4 2
-10 11 -7 0 -10 -37 -10 -47 0 -53 2 -53 21 0 22 22 49 39 49 6 0 11 7 11 15
0 8 7 15 15 15 8 0 15 5 15 10 0 6 5 10 10 10 6 0 10 -22 10 -50z"/>
<path d="M11530 8410 c0 -5 -7 -10 -15 -10 -8 0 -15 -4 -15 -10 0 -5 -5 -10
-11 -10 -6 0 -17 -6 -24 -12 -33 -30 -45 -38 -55 -38 -5 0 -10 -5 -10 -11 0
-5 -4 -7 -10 -4 -5 3 -10 1 -10 -4 0 -6 -7 -11 -15 -11 -8 0 -15 -4 -15 -9 0
-5 -8 -12 -17 -15 -33 -12 -63 -33 -56 -39 3 -4 -6 -7 -20 -7 -17 0 -27 -5
-27 -15 0 -8 -7 -15 -15 -15 -8 0 -15 -4 -15 -9 0 -5 -8 -11 -17 -15 -18 -5
-53 -26 -63 -36 -7 -7 -41 -28 -67 -42 -23 -11 -32 -48 -13 -48 6 0 10 -11 10
-25 0 -14 4 -25 10 -25 5 0 12 -11 16 -25 3 -14 10 -25 15 -25 5 0 9 -7 9 -16
0 -8 4 -13 9 -10 8 5 17 -7 19 -27 2 -17 29 -34 65 -41 20 -4 37 -11 37 -16 0
-13 47 -13 55 0 3 6 19 10 34 10 16 0 34 7 41 15 7 8 17 15 22 15 5 0 34 25
64 55 49 51 54 60 54 101 0 25 -6 52 -12 59 -32 36 -38 46 -38 65 0 11 -6 19
-12 18 -8 -2 -12 6 -10 22 3 25 20 42 34 34 4 -3 8 0 8 5 0 6 7 11 15 11 8 0
15 7 15 15 0 9 9 15 25 15 16 0 25 6 25 16 0 8 4 13 8 10 5 -3 16 4 25 15 16
18 16 21 2 35 -8 9 -15 21 -15 27 0 7 -9 18 -20 25 -12 7 -20 8 -20 2z m-175
-290 c25 -19 49 -60 35 -60 -5 0 -10 -10 -10 -23 0 -22 -12 -36 -60 -70 -27
-19 -120 -24 -120 -6 0 6 -7 17 -15 25 -8 9 -15 24 -15 35 0 19 33 59 49 59 5
0 11 4 13 9 4 12 76 49 91 47 7 -1 21 -8 32 -16z"/>
<path d="M2779 8018 c0 -7 -3 -25 -5 -39 -3 -21 5 -36 40 -73 25 -25 48 -46
51 -46 3 0 19 -13 35 -30 16 -16 33 -30 38 -30 5 0 17 -16 28 -35 10 -19 24
-35 30 -35 6 0 55 -44 110 -98 102 -101 144 -127 144 -91 0 10 5 19 10 19 6 0
10 14 10 30 0 17 -4 30 -9 30 -13 0 -76 62 -84 83 -4 11 -1 20 8 23 8 4 15 17
15 30 0 13 4 24 9 24 5 0 12 12 15 26 7 25 9 26 59 21 29 -3 67 -9 85 -12 28
-6 32 -5 32 13 0 11 4 22 9 24 4 2 12 13 15 26 6 18 4 22 -14 22 -12 0 -28 7
-36 15 -9 9 -34 15 -60 15 -28 0 -43 4 -39 10 4 6 -14 10 -48 10 -30 0 -71 7
-90 15 -20 8 -55 15 -77 15 -22 0 -40 5 -40 10 0 6 -19 10 -42 10 -24 0 -52 7
-62 15 -25 19 -136 21 -137 3z m216 -108 c3 -5 20 -10 36 -10 18 0 28 -4 24
-10 -4 -6 8 -10 29 -10 19 0 41 -3 50 -6 17 -6 23 -54 7 -54 -5 0 -11 -9 -14
-20 -3 -14 -14 -20 -32 -20 -15 0 -24 4 -20 10 3 6 2 10 -4 10 -5 0 -29 18
-52 40 -24 22 -49 40 -56 40 -7 0 -13 6 -13 14 0 8 -6 17 -12 19 -7 3 1 6 19
6 17 1 35 -3 38 -9z"/>
<path d="M11866 7715 c-11 -8 -30 -15 -43 -15 -13 0 -23 -4 -23 -10 0 -5 -9
-10 -21 -10 -11 0 -27 -7 -35 -15 -9 -8 -24 -15 -34 -15 -10 0 -22 -4 -25 -10
-3 -5 -16 -10 -28 -10 -12 0 -31 -7 -41 -15 -11 -8 -28 -15 -38 -15 -10 0 -18
-4 -18 -10 0 -5 -11 -10 -25 -10 -14 0 -28 -7 -31 -15 -4 -9 -19 -15 -41 -15
-19 0 -32 -4 -29 -9 3 -5 -7 -11 -22 -15 -37 -8 -70 -35 -55 -44 6 -4 14 -19
18 -34 6 -24 10 -26 43 -21 20 4 47 12 62 20 14 7 31 13 38 13 6 0 12 5 12 10
0 6 15 10 34 10 19 0 36 4 38 9 2 5 12 11 23 13 15 2 21 -3 23 -24 2 -16 7
-28 12 -28 5 0 11 -13 15 -30 4 -16 11 -32 16 -35 5 -4 9 -17 9 -30 0 -16 -7
-25 -25 -29 -14 -4 -25 -11 -25 -16 0 -6 -15 -10 -34 -10 -19 0 -36 -3 -38 -7
-3 -8 -59 -36 -92 -47 -13 -5 -17 -12 -12 -29 3 -12 6 -30 6 -39 0 -25 37 -32
65 -14 13 9 36 16 50 16 14 0 25 5 25 10 0 6 11 10 25 10 14 0 28 6 31 13 4
11 18 16 62 19 6 1 12 5 12 10 0 4 8 8 18 8 10 0 27 7 38 15 10 8 29 15 42 15
12 0 22 4 22 9 0 5 14 12 30 16 17 4 30 11 30 16 0 5 16 9 35 9 19 0 35 4 35
8 0 4 13 13 30 19 32 12 52 44 32 51 -7 2 -12 17 -12 34 0 27 -3 30 -22 23
-13 -3 -33 -9 -45 -12 -13 -3 -23 -9 -23 -14 0 -5 -13 -9 -29 -9 -16 0 -31 -6
-35 -15 -3 -8 -17 -15 -31 -15 -14 0 -25 -4 -25 -10 0 -18 -32 -11 -51 12 -11
11 -19 32 -19 45 0 14 -4 21 -10 18 -6 -4 -10 8 -10 29 0 20 -4 36 -10 36 -19
0 -10 15 21 33 17 9 44 17 60 17 16 0 29 5 29 10 0 6 11 10 25 10 16 0 25 6
25 15 0 9 9 15 23 15 26 0 62 19 37 20 -13 0 -13 1 0 10 10 6 11 10 3 10 -8 0
-13 13 -13 30 0 27 -3 30 -32 30 -18 0 -42 -7 -52 -15z"/>
<path d="M2556 7415 c-8 -8 -20 -15 -26 -15 -6 0 -8 -4 -5 -10 3 -5 -1 -10 -9
-10 -9 0 -16 -7 -16 -15 0 -8 -4 -15 -10 -15 -5 0 -12 -11 -16 -25 -3 -14 -10
-25 -15 -25 -5 0 -9 -34 -9 -75 l0 -75 40 0 c36 0 40 3 40 24 0 14 5 28 10 31
6 3 10 18 10 33 1 60 50 81 118 51 32 -14 32 -14 32 -90 0 -77 0 -77 30 -88
28 -9 32 -8 40 14 5 14 14 25 20 25 5 0 10 9 10 19 0 21 48 61 74 61 17 0 66
-28 77 -43 3 -5 10 -7 15 -5 12 4 17 -56 9 -99 -3 -19 -10 -31 -16 -28 -5 4
-9 -1 -9 -10 0 -9 -7 -23 -15 -31 -8 -9 -15 -20 -15 -25 0 -5 7 -9 15 -9 8 0
15 -7 15 -15 0 -8 7 -15 15 -15 8 0 15 -4 15 -10 0 -5 5 -10 10 -10 6 0 10 7
10 16 0 8 5 12 10 9 6 -3 10 1 10 10 0 8 7 18 15 21 8 4 15 17 15 31 0 13 4
22 9 19 12 -8 24 124 15 170 -8 42 -54 94 -84 94 -10 0 -25 7 -34 15 -31 31
-126 13 -159 -29 -6 -8 -10 -7 -14 2 -2 7 -11 19 -19 26 -8 8 -14 22 -14 32 0
10 -3 15 -6 11 -3 -3 -16 5 -29 19 -12 13 -30 24 -39 24 -10 0 -24 7 -32 15
-9 8 -28 15 -44 15 -16 0 -35 -7 -44 -15z"/>
<path d="M12180 6960 c-8 -5 -34 -10 -58 -10 -26 0 -41 -4 -37 -10 4 -6 -6
-10 -23 -10 -16 0 -46 -7 -65 -15 -20 -8 -57 -15 -82 -15 -25 0 -45 -4 -45 -9
0 -4 -21 -11 -46 -14 -26 -2 -49 -9 -53 -14 -3 -5 -28 -10 -56 -12 -27 -2 -52
-6 -55 -10 -3 -5 -17 -11 -32 -15 -23 -5 -28 -12 -28 -35 0 -16 5 -31 11 -33
6 -2 14 -27 17 -56 2 -29 8 -52 13 -52 5 0 9 -9 9 -21 0 -11 18 -38 40 -60
l39 -39 101 0 c57 0 99 4 96 9 -3 5 6 12 21 16 15 3 44 25 65 47 35 37 38 45
38 98 0 36 -5 62 -14 69 -7 6 -11 22 -8 36 4 22 10 25 43 25 22 0 39 4 39 9 0
5 25 11 55 13 30 3 58 8 62 11 9 10 -10 100 -22 104 -5 1 -17 -2 -25 -7z
m-245 -190 c-3 -5 -1 -10 4 -10 20 0 12 -68 -9 -83 -11 -8 -17 -17 -13 -20 3
-4 -6 -7 -20 -7 -15 0 -27 -4 -27 -10 0 -5 -24 -10 -53 -10 -47 0 -56 3 -75
30 -12 16 -22 43 -22 59 0 28 4 31 40 37 22 4 40 10 40 15 0 5 32 9 71 9 44 0
68 -4 64 -10z"/>
<path d="M2725 6665 c-25 -9 -79 -15 -142 -15 -62 0 -103 -4 -103 -10 0 -6
-40 -10 -100 -10 l-99 0 -7 -35 c-3 -19 -10 -32 -15 -29 -5 3 -9 -4 -9 -15 0
-16 6 -21 24 -21 13 0 26 -3 28 -7 4 -11 67 -43 84 -43 8 0 14 -4 14 -10 0 -5
11 -12 25 -16 14 -3 25 -9 25 -13 0 -4 10 -7 22 -8 12 -1 26 -9 30 -18 5 -8
18 -15 28 -15 11 0 20 -4 20 -10 0 -5 11 -10 25 -10 14 0 25 -4 25 -9 0 -5 11
-12 25 -15 14 -4 25 -11 25 -16 0 -6 7 -10 17 -10 22 0 93 -32 93 -42 0 -4 8
-8 18 -8 10 0 27 -7 38 -15 27 -20 34 -19 34 10 0 14 5 25 10 25 6 0 10 10 10
23 0 24 -47 57 -81 57 -11 0 -17 5 -14 10 3 6 -1 10 -9 10 -13 0 -16 15 -16
86 0 50 4 83 9 79 5 -3 12 -1 16 5 3 5 31 10 61 10 66 0 84 14 84 64 l0 36
-77 0 c-43 -1 -96 -7 -118 -15z m-53 -136 c-1 -13 -7 -25 -12 -27 -6 -2 -10
-15 -10 -28 0 -27 -14 -31 -36 -9 -9 8 -26 15 -40 15 -13 0 -24 5 -24 10 0 6
-9 10 -21 10 -11 0 -27 7 -35 15 -9 8 -26 15 -40 15 -13 0 -24 4 -24 10 0 9
120 18 205 15 36 -1 40 -3 37 -26z"/>
<path d="M12280 6560 c0 -5 -20 -10 -45 -10 -25 0 -45 -4 -45 -10 0 -5 -15
-10 -32 -10 -18 0 -46 -7 -62 -15 -15 -8 -50 -15 -77 -15 -26 0 -51 -4 -54
-10 -3 -5 -21 -10 -38 -10 -18 -1 -43 -7 -57 -15 -14 -8 -46 -14 -72 -15 -27
0 -48 -4 -48 -10 0 -5 -11 -10 -25 -10 -21 0 -25 -5 -25 -30 0 -16 5 -30 10
-30 6 0 10 -9 10 -20 0 -17 7 -20 40 -20 22 0 40 4 40 9 0 5 23 12 50 16 28 4
50 11 50 16 0 5 22 9 49 9 28 0 53 5 56 10 3 6 25 10 49 10 23 0 51 7 62 15
10 8 38 15 62 15 26 0 41 4 37 10 -4 6 10 10 34 10 61 0 71 7 71 52 0 22 -6
46 -14 54 -17 16 -26 18 -26 4z"/>
<path d="M12335 6017 c-37 -11 -116 -15 -367 -16 l-198 -1 0 -32 c0 -18 4 -38
8 -43 12 -17 60 -45 77 -45 9 0 23 -6 30 -12 36 -32 45 -38 64 -38 10 0 21 -7
25 -15 3 -8 13 -15 23 -15 10 0 27 -7 37 -15 10 -8 22 -12 26 -10 5 3 10 -2
14 -10 3 -8 15 -15 26 -15 11 0 20 -4 20 -10 0 -5 12 -10 26 -10 16 0 24 -5
22 -12 -4 -10 -56 -14 -199 -18 l-194 -5 2 -25 c0 -14 1 -35 2 -47 l1 -23 310
0 310 0 0 50 c0 47 -2 50 -25 50 -14 0 -25 6 -25 13 0 7 -10 13 -22 14 -11 1
-24 6 -27 11 -3 5 -16 12 -28 16 -13 4 -23 12 -23 17 0 5 -11 9 -25 9 -14 0
-25 5 -25 10 0 6 -5 10 -11 10 -6 0 -17 7 -25 15 -9 8 -24 15 -35 15 -10 0
-19 5 -19 10 0 6 -8 10 -19 10 -10 0 -24 7 -31 15 -7 8 -23 15 -36 15 -21 0
-36 19 -16 20 4 1 86 3 182 6 96 3 180 10 187 16 6 5 9 16 6 24 -3 8 0 14 7
14 10 0 10 3 0 15 -9 11 -10 18 -1 29 16 19 -14 26 -54 13z"/>
<path d="M2780 5992 c0 -4 -20 -16 -45 -27 -25 -11 -45 -23 -45 -27 0 -5 -9
-8 -20 -8 -11 0 -20 -7 -20 -15 0 -9 -9 -15 -22 -15 -13 0 -32 -7 -42 -15 -10
-8 -23 -12 -27 -9 -5 3 -9 -2 -9 -10 0 -9 -6 -16 -14 -16 -7 0 -19 -7 -26 -15
-7 -8 -21 -15 -32 -15 -10 0 -21 7 -24 15 -4 8 -10 15 -16 15 -5 0 -16 7 -24
15 -9 8 -24 15 -35 15 -11 0 -17 5 -14 10 3 6 0 10 -7 10 -21 0 -88 37 -81 44
4 3 -1 6 -10 6 -9 0 -17 5 -17 11 0 5 -4 8 -9 4 -5 -3 -12 -1 -16 5 -3 5 -15
10 -26 10 -16 0 -19 -7 -19 -46 0 -48 25 -84 57 -84 7 0 13 -4 13 -10 0 -5 11
-10 24 -10 13 0 26 -7 30 -15 3 -8 15 -15 26 -15 11 0 20 -4 20 -10 0 -5 11
-10 25 -10 16 0 25 -6 25 -15 0 -8 3 -14 8 -14 30 5 43 -3 40 -23 -3 -26 3
-25 -151 -27 l-118 -1 3 -47 3 -48 308 -3 307 -2 0 50 0 50 -125 0 c-125 0
-125 0 -125 24 0 19 11 29 58 51 31 15 64 31 72 36 8 5 23 12 33 15 9 4 17 10
17 14 0 4 16 11 35 14 29 6 35 11 35 32 0 14 4 22 10 19 16 -10 12 65 -4 81
-16 16 -26 18 -26 6z"/>
<path d="M12478 5919 c-26 -28 -28 -36 -28 -114 0 -92 7 -108 62 -132 32 -14
38 -9 38 36 0 28 -5 39 -22 46 -18 8 -24 20 -26 53 -2 23 0 42 5 41 33 -6 43
3 43 37 0 33 -18 65 -37 63 -4 0 -20 -14 -35 -30z"/>
<path d="M2733 5186 c-18 -11 -33 -29 -33 -38 0 -10 -4 -18 -9 -18 -5 0 -12
-11 -15 -25 -4 -14 -11 -25 -16 -25 -17 0 -12 -107 5 -114 8 -3 15 -14 15 -25
0 -11 5 -23 10 -26 6 -4 10 10 10 34 0 22 4 42 9 45 11 7 18 -38 20 -144 1
-47 6 -86 12 -88 5 -2 9 -10 9 -18 0 -8 5 -14 10 -14 6 0 10 5 10 10 0 6 7 10
15 10 8 0 15 7 15 15 0 8 7 15 15 15 8 0 15 -9 15 -19 0 -11 -7 -26 -15 -35
-10 -10 -15 -34 -15 -73 0 -41 3 -54 10 -43 5 8 10 25 10 38 0 12 7 25 15 28
8 4 15 17 15 30 0 15 6 24 15 24 9 0 15 -9 15 -24 0 -14 -7 -31 -15 -40 -8 -8
-15 -32 -15 -56 0 -25 -4 -39 -10 -35 -6 4 -10 -5 -10 -19 0 -22 4 -26 31 -26
30 0 59 19 59 39 0 6 7 11 15 11 11 0 15 12 15 50 0 28 5 50 10 50 6 0 10 30
10 70 0 54 4 72 15 76 9 4 15 19 15 40 0 30 -3 34 -25 34 -16 0 -25 -6 -25
-15 0 -8 -3 -14 -7 -13 -13 5 -93 -56 -93 -69 0 -7 -7 -13 -16 -13 -13 0 -15
6 -9 27 3 15 12 31 18 35 9 6 9 10 0 16 -6 4 -15 40 -18 80 -4 39 -12 72 -16
72 -5 0 -9 29 -9 65 0 37 -4 65 -10 65 -5 0 -10 11 -10 24 0 34 -10 37 -47 12z"/>
<path d="M11870 5136 c0 -19 -4 -38 -10 -41 -5 -3 -10 -28 -10 -56 0 -27 -4
-49 -9 -49 -4 0 -11 -19 -14 -42 -3 -24 -11 -44 -16 -46 -22 -7 -12 -100 14
-143 25 -39 60 -79 70 -79 3 0 5 17 6 38 0 30 2 33 9 17 6 -13 9 13 9 75 1
100 8 140 22 140 5 0 9 -54 9 -120 0 -121 12 -158 24 -75 4 24 11 47 17 50 14
9 11 34 -6 51 -8 9 -15 26 -15 40 0 14 7 27 15 30 17 7 22 94 5 94 -5 0 -13
18 -16 40 -4 22 -10 37 -15 34 -5 -3 -9 -1 -9 5 0 14 -56 71 -70 71 -5 0 -10
-15 -10 -34z"/>
<path d="M2550 4965 c0 -8 -4 -15 -10 -15 -5 0 -10 -9 -10 -20 0 -11 5 -20 10
-20 6 0 10 -7 10 -15 0 -21 66 -21 74 1 10 27 7 52 -10 68 -20 21 -64 21 -64
1z"/>
<path d="M12028 4922 c-27 -26 -37 -52 -20 -52 5 0 14 -10 20 -22 7 -15 11
-17 11 -8 1 12 3 13 10 1 12 -18 51 -4 51 19 0 10 6 21 13 24 10 5 10 7 0 12
-7 3 -13 12 -13 20 0 8 -7 14 -15 14 -8 0 -15 5 -15 10 0 16 -13 11 -42 -18z"/>
<path d="M2450 4894 c0 -19 7 -42 15 -50 8 -9 15 -29 15 -45 0 -16 5 -29 10
-29 6 0 10 -18 10 -41 0 -31 6 -47 28 -68 37 -37 79 -64 90 -57 11 7 3 66 -9
66 -5 0 -9 13 -9 29 0 16 -6 31 -15 35 -18 7 -20 46 -2 46 12 0 28 -24 43 -62
10 -28 24 -21 24 13 0 16 -4 28 -9 24 -6 -3 -13 10 -17 29 -4 23 -13 38 -26
42 -16 5 -18 8 -7 15 9 6 -1 9 -29 9 -26 0 -41 4 -37 10 3 6 -1 13 -9 16 -9 3
-16 16 -16 28 0 16 -7 22 -25 24 -22 2 -25 -2 -25 -34z"/>
<path d="M12163 4885 c-7 -8 -13 -17 -13 -20 0 -6 -11 -20 -38 -50 -7 -8 -22
-15 -33 -15 -26 0 -46 -20 -55 -54 -3 -14 -10 -23 -15 -20 -5 3 -9 -11 -9 -30
0 -20 5 -36 10 -36 6 0 10 9 10 20 0 11 7 20 15 20 9 0 15 9 15 25 0 14 6 25
14 25 16 0 13 -53 -3 -58 -6 -2 -11 -17 -11 -33 0 -16 -4 -29 -9 -29 -5 0 -12
-13 -16 -30 -4 -16 -11 -30 -16 -30 -6 0 -7 -5 -4 -11 5 -7 15 -5 31 5 13 9
31 16 39 16 21 0 40 19 49 48 4 12 12 22 17 22 5 0 9 16 9 35 0 19 4 35 9 35
5 0 11 23 13 52 3 29 11 54 17 56 6 2 11 15 11 28 0 13 5 24 10 24 6 0 10 5
10 10 0 15 -43 11 -57 -5z"/>
<path d="M2657 4883 c-14 -13 -7 -63 8 -63 10 0 15 11 15 35 0 33 -8 43 -23
28z"/>
<path d="M11650 4821 c0 -16 5 -31 12 -33 8 -3 14 -39 16 -106 2 -56 8 -102
13 -102 5 0 9 -11 9 -25 0 -14 5 -25 11 -25 6 0 17 -6 24 -12 36 -33 46 -38
67 -38 17 0 19 3 10 12 -7 7 -12 33 -12 59 0 26 -5 49 -11 51 -6 2 -11 16 -11
32 0 15 5 33 11 39 8 8 11 4 11 -15 0 -14 7 -28 15 -32 8 -3 15 -17 15 -31 0
-14 5 -25 10 -25 6 0 10 25 10 55 0 30 -4 55 -10 55 -5 0 -12 11 -16 25 -3 14
-10 25 -15 25 -5 0 -9 7 -9 15 0 20 -88 106 -94 92 -3 -9 -5 -8 -5 1 -1 6 -12
12 -26 12 -21 0 -25 -5 -25 -29z"/>
<path d="M2654 4669 c-3 -6 -1 -16 5 -22 8 -8 11 -5 11 11 0 24 -5 28 -16 11z"/>
<path d="M2730 4630 c0 -33 -3 -38 -17 -34 -17 5 -17 5 0 -6 9 -6 22 -8 27 -5
13 8 13 85 0 85 -5 0 -10 -18 -10 -40z"/>
<path d="M11905 4608 c-4 -10 -4 -26 0 -35 8 -17 8 -17 12 0 3 9 3 25 0 35 -4
16 -4 16 -12 0z"/>
<path d="M2700 4530 c0 -38 4 -50 15 -50 12 0 15 -15 15 -75 0 -43 4 -75 10
-75 6 0 10 -27 10 -61 0 -40 5 -65 15 -75 8 -9 15 -26 15 -40 0 -13 5 -24 10
-24 6 0 10 -12 10 -26 0 -14 7 -32 15 -40 8 -9 15 -27 15 -40 0 -14 4 -22 10
-19 6 4 10 -8 10 -29 0 -20 4 -36 9 -36 5 0 12 -8 15 -17 8 -19 -10 -34 -31
-26 -7 3 -13 0 -13 -6 0 -6 11 -11 25 -11 14 0 24 -5 23 -10 -2 -6 8 -16 22
-23 14 -7 26 -23 28 -35 2 -12 8 -22 13 -22 5 0 9 -9 9 -20 0 -11 4 -20 10
-20 5 0 12 -11 16 -25 3 -14 10 -25 15 -25 5 0 9 -11 9 -25 0 -14 -4 -25 -10
-25 -5 0 -10 -8 -10 -17 1 -16 2 -16 16 2 14 19 16 19 28 3 7 -10 16 -15 19
-11 4 3 7 -1 7 -11 0 -10 6 -24 13 -31 31 -35 37 -45 37 -60 0 -9 7 -18 15
-21 8 -4 12 -10 9 -15 -3 -5 2 -9 10 -9 9 0 16 -5 16 -11 0 -6 17 -28 38 -49
51 -53 62 -67 62 -80 0 -5 5 -10 11 -10 11 0 39 -25 39 -35 0 -3 11 -16 25
-29 29 -27 31 -36 10 -36 -8 0 -15 5 -15 10 0 6 -5 10 -11 10 -5 0 -7 -5 -4
-10 3 -6 -4 -14 -17 -19 -13 -6 -21 -10 -18 -11 20 -6 52 -9 97 -11 41 -2 54
-6 59 -21 3 -10 9 -16 13 -14 4 3 14 -4 21 -15 8 -10 20 -19 27 -19 7 0 13 -7
13 -15 0 -8 7 -15 15 -15 8 0 15 -5 15 -12 0 -6 3 -8 6 -5 4 4 15 -3 25 -14
10 -12 25 -19 33 -16 10 4 13 1 9 -9 -3 -7 0 -14 6 -14 6 0 11 9 11 20 0 11
-4 20 -10 20 -5 0 -10 7 -10 15 0 8 -4 15 -9 15 -5 0 -13 10 -16 21 -8 25 -61
80 -69 71 -3 -3 -6 1 -6 8 0 7 -3 11 -6 7 -3 -3 -16 5 -29 19 -12 13 -25 24
-29 24 -11 0 -36 27 -36 39 0 6 -7 11 -15 11 -8 0 -15 7 -15 15 0 8 -4 15 -10
15 -5 0 -10 7 -10 15 0 8 -4 15 -9 15 -13 0 -141 127 -141 140 0 6 -11 21 -25
34 -14 13 -25 26 -25 30 0 12 -34 45 -42 40 -4 -3 -8 9 -8 26 0 17 -4 29 -9
26 -5 -3 -12 5 -15 19 -4 14 -11 25 -16 25 -6 0 -10 5 -10 10 0 6 -11 23 -25
38 -14 15 -25 34 -25 43 0 9 -7 19 -15 23 -8 3 -15 12 -15 21 0 8 -4 15 -10
15 -5 0 -10 14 -10 31 0 16 -4 28 -9 24 -5 -3 -12 4 -16 15 -3 11 -11 20 -16
20 -5 0 -9 9 -9 20 0 11 -4 20 -10 20 -5 0 -10 15 -10 34 0 19 -7 41 -15 50
-8 8 -15 24 -15 36 0 12 -7 28 -15 36 -8 9 -15 26 -15 40 0 13 -4 24 -10 24
-5 0 -10 16 -10 36 0 19 -7 42 -15 50 -8 9 -15 26 -15 39 0 13 -4 27 -10 30
-5 3 -10 32 -10 65 0 42 -4 59 -15 64 -10 4 -15 20 -15 51 0 25 -4 45 -10 45
-5 0 -10 -22 -10 -50z"/>
<path d="M2435 4553 c4 -10 10 -26 12 -35 3 -10 12 -18 19 -18 8 0 14 -9 14
-19 0 -11 5 -23 10 -26 6 -3 10 -17 10 -31 0 -13 4 -24 10 -24 5 0 12 -11 16
-25 3 -14 10 -25 14 -25 4 0 10 -9 13 -21 3 -11 15 -23 26 -26 12 -3 21 -9 21
-14 0 -5 18 -9 40 -9 42 0 49 9 25 34 -8 8 -15 21 -15 29 0 8 -7 17 -15 21 -8
3 -15 12 -15 21 0 8 -4 15 -10 15 -5 0 -10 9 -10 21 0 11 -4 17 -10 14 -5 -3
-10 -1 -10 4 0 6 5 11 11 11 14 0 39 -26 39 -41 0 -7 3 -9 7 -6 3 4 12 -1 19
-11 12 -15 13 -14 14 11 0 15 -4 27 -10 27 -5 0 -10 7 -10 15 0 19 -67 85 -86
85 -8 0 -14 3 -14 8 0 13 -53 32 -88 32 -29 0 -33 -3 -27 -17z"/>
<path d="M2954 4515 c-4 -8 -10 -15 -16 -15 -21 0 -58 -59 -61 -98 0 -12 -7
-22 -14 -22 -10 0 -13 -23 -13 -90 0 -73 3 -90 15 -90 11 0 15 12 16 43 1 23
1 46 0 50 -1 5 3 6 9 2 6 -4 10 6 10 24 0 17 5 31 10 31 12 0 13 -9 11 -115
-2 -104 7 -118 48 -76 17 17 31 41 31 51 0 11 4 20 9 20 5 0 9 15 8 34 -1 19
-5 32 -9 29 -5 -2 -8 50 -8 116 0 115 -1 121 -20 121 -11 0 -23 -7 -26 -15z"/>
<path d="M12135 4514 c-7 -8 -23 -14 -34 -14 -12 0 -21 -4 -21 -10 0 -5 -7
-10 -15 -10 -8 0 -15 -7 -15 -15 0 -8 -5 -15 -11 -15 -17 0 -39 -27 -39 -49 0
-12 6 -21 15 -21 8 0 15 5 15 10 0 6 5 10 10 10 6 0 10 -12 10 -26 0 -14 -4
-23 -9 -19 -5 3 -12 -4 -16 -15 -4 -11 -11 -18 -16 -15 -5 4 -9 -5 -9 -19 0
-14 -4 -26 -10 -26 -5 0 -10 -9 -10 -19 0 -17 5 -19 38 -14 20 3 42 12 48 19
6 8 16 14 23 14 6 0 11 7 11 15 0 8 5 15 10 15 6 0 10 9 10 19 0 11 7 26 15
35 8 8 15 24 15 35 0 12 5 21 10 21 6 0 10 6 10 14 0 8 6 21 13 28 6 8 18 24
25 36 10 18 10 22 0 23 -7 1 -23 3 -36 4 -13 1 -29 -4 -37 -11z"/>
<path d="M11650 4390 c0 -67 -4 -110 -10 -110 -5 0 -10 -22 -10 -50 0 -27 5
-50 10 -50 6 0 10 -9 10 -20 0 -21 34 -62 44 -52 3 3 6 -2 6 -11 0 -9 7 -17
15 -17 13 0 14 14 9 90 -6 91 0 135 17 125 5 -4 9 -23 9 -44 0 -31 5 -40 25
-49 24 -11 25 -10 25 21 0 38 -32 171 -42 175 -5 2 -8 10 -8 18 0 8 -7 14 -16
14 -8 0 -12 5 -9 10 3 6 -1 10 -9 10 -9 0 -16 7 -16 15 0 8 -7 15 -15 15 -8 0
-15 5 -15 10 0 6 -4 10 -10 10 -6 0 -10 -43 -10 -110z"/>
<path d="M11950 4490 c0 -5 5 -10 10 -10 6 0 10 5 10 10 0 6 -4 10 -10 10 -5
0 -10 -4 -10 -10z"/>
<path d="M2787 4456 c-4 -10 -5 -21 -2 -24 9 -9 17 6 13 25 -3 17 -4 17 -11
-1z"/>
<path d="M11900 4385 c0 -25 -4 -45 -9 -45 -5 0 -12 -25 -16 -55 -3 -30 -11
-55 -16 -55 -5 0 -9 -13 -9 -30 0 -16 -4 -30 -9 -30 -5 0 -12 -16 -15 -35 -4
-19 -11 -35 -16 -35 -6 0 -10 -16 -10 -35 0 -19 -4 -35 -9 -35 -5 0 -12 -11
-15 -25 -4 -14 -11 -25 -16 -25 -6 0 -10 -15 -10 -34 0 -21 -9 -42 -25 -60
-14 -15 -25 -36 -25 -47 0 -10 -4 -19 -10 -19 -5 0 -12 -11 -16 -25 -3 -14
-10 -22 -15 -19 -5 3 -9 -6 -9 -20 0 -14 -4 -26 -10 -26 -5 0 -10 -7 -10 -15
0 -8 -7 -15 -15 -15 -9 0 -15 -9 -15 -21 0 -12 -16 -37 -35 -56 -19 -19 -35
-43 -35 -54 0 -11 -7 -22 -15 -25 -8 -4 -15 -12 -15 -20 0 -8 -4 -14 -9 -14
-5 0 -13 -9 -16 -20 -4 -11 -11 -18 -16 -15 -5 4 -9 1 -9 -6 0 -6 -11 -22 -25
-35 -14 -13 -25 -28 -25 -34 0 -6 -4 -8 -10 -5 -5 3 -10 0 -10 -8 0 -18 -34
-57 -49 -57 -6 0 -11 9 -11 20 0 38 -17 20 -18 -20 -2 -42 -29 -80 -58 -80 -8
0 -13 -4 -10 -9 3 -5 -1 -14 -9 -21 -8 -7 -15 -10 -15 -6 0 3 -17 -11 -39 -31
-21 -21 -51 -49 -68 -63 -16 -14 -30 -27 -30 -30 -3 -18 -28 -60 -35 -60 -4 0
-8 -7 -8 -15 0 -24 29 -14 68 22 19 18 43 35 53 38 10 4 19 11 19 16 0 5 7 9
15 9 8 0 15 5 15 11 0 6 6 16 13 23 16 16 92 46 118 46 11 0 17 5 14 10 -3 6
-15 10 -26 10 -10 0 -19 2 -19 5 0 3 23 27 50 54 28 27 50 53 50 58 0 5 11 16
25 23 14 7 25 18 25 24 0 6 11 20 25 30 14 10 25 25 25 32 0 8 6 11 15 8 10
-4 15 0 15 15 0 23 16 29 23 9 4 -10 7 -10 18 0 11 10 10 12 -4 12 -9 0 -17 7
-17 15 0 15 6 25 38 60 6 7 12 16 12 20 0 4 6 13 13 20 31 36 37 46 37 65 0
12 5 18 10 15 9 -6 14 8 11 28 0 4 6 7 14 7 10 0 15 10 15 31 0 17 4 28 10 24
6 -3 10 5 10 18 0 18 7 27 25 31 14 4 23 11 20 16 -3 6 3 10 14 10 23 0 28 15
8 23 -17 6 -15 49 1 55 7 2 12 17 12 33 0 16 5 29 10 29 6 0 10 9 10 19 0 11
7 26 15 35 8 8 15 31 15 50 0 20 5 36 10 36 6 0 10 9 10 19 0 11 7 26 15 35
10 10 15 36 15 83 1 59 2 66 14 51 7 -10 19 -18 27 -18 10 1 9 4 -3 14 -14 10
-18 28 -18 75 0 34 -4 61 -10 61 -5 0 -10 -20 -10 -45z"/>
<path d="M11980 4371 c0 -12 -7 -21 -15 -21 -9 0 -15 -9 -15 -25 0 -14 5 -25
11 -25 6 0 8 7 5 16 -3 8 -2 12 4 9 6 -3 10 1 10 9 0 9 5 16 10 16 6 0 10 6
10 14 0 8 -4 18 -10 21 -5 3 -10 -3 -10 -14z"/>
<path d="M2680 4365 c0 -8 5 -15 10 -15 6 0 10 7 10 15 0 8 -4 15 -10 15 -5 0
-10 -7 -10 -15z"/>
<path d="M2662 4208 c-11 -14 -15 -33 -13 -60 1 -23 66 -25 75 -3 9 25 -18 75
-42 75 -5 0 -14 -6 -20 -12z"/>
<path d="M2438 4193 c6 -2 12 -10 12 -17 0 -7 11 -22 25 -32 14 -10 25 -24 25
-31 0 -7 7 -13 16 -13 8 0 13 -4 10 -9 -3 -5 1 -14 9 -21 8 -7 15 -17 15 -22
0 -8 8 -20 38 -53 6 -7 12 -17 12 -22 0 -13 61 -41 105 -47 40 -5 83 10 58 21
-7 2 -13 10 -13 17 0 7 -11 19 -25 26 -14 7 -25 17 -25 22 0 13 -26 38 -39 38
-6 0 -11 7 -11 15 0 8 -4 15 -9 15 -5 0 -12 16 -15 35 -4 19 -11 35 -16 35 -6
0 -10 11 -10 25 0 25 -1 25 -87 24 -49 0 -82 -3 -75 -6z"/>
<path d="M11935 4164 c-11 -11 -14 -25 -10 -38 4 -12 7 -27 7 -33 2 -15 38
-18 38 -3 0 6 7 10 15 10 23 0 20 57 -4 70 -25 13 -27 13 -46 -6z"/>
<path d="M3080 4160 c0 -5 -7 -10 -15 -10 -8 0 -15 -6 -15 -14 0 -7 -6 -26
-14 -41 -9 -16 -11 -37 -7 -53 4 -15 4 -47 -1 -72 -10 -49 -2 -137 13 -146 5
-3 9 28 9 70 0 41 4 77 9 80 12 8 21 -19 21 -65 0 -21 5 -39 10 -39 6 0 10
-27 10 -60 0 -33 4 -60 10 -60 6 0 10 7 10 15 0 8 6 15 13 15 21 0 41 62 39
120 -1 30 -7 57 -12 58 -6 2 -10 19 -10 38 0 19 -4 34 -10 34 -5 0 -12 23 -16
50 -4 28 -10 50 -15 50 -5 0 -9 9 -9 20 0 11 -4 20 -10 20 -5 0 -10 -4 -10
-10z"/>
<path d="M12080 4160 c0 -5 -7 -10 -15 -10 -8 0 -15 -5 -15 -11 0 -5 -5 -7
-11 -4 -6 4 -9 1 -8 -6 2 -8 -1 -29 -5 -48 -6 -25 -11 -30 -17 -20 -7 11 -9 9
-9 -6 -1 -24 -23 -55 -39 -55 -6 0 -11 -6 -11 -13 0 -8 -11 -20 -25 -27 -14
-7 -25 -17 -25 -22 0 -5 -7 -16 -15 -24 -26 -27 -16 -34 46 -34 53 0 65 4 84
24 13 14 26 22 29 19 3 -4 6 1 6 10 0 10 5 17 10 17 6 0 10 7 10 15 0 8 4 15
9 15 5 0 13 10 17 22 6 20 13 31 42 63 6 7 12 16 12 20 0 3 11 16 25 29 43 40
34 56 -35 56 -33 0 -60 -4 -60 -10z"/>
<path d="M11549 4123 c-1 -4 -1 -11 0 -15 0 -5 -3 -8 -8 -8 -4 0 -11 -21 -14
-47 -3 -26 -10 -49 -16 -51 -6 -2 -11 -19 -11 -38 0 -20 -4 -33 -9 -29 -5 3
-12 -23 -16 -58 -9 -79 16 -147 52 -147 20 0 23 5 23 44 0 26 6 48 15 56 9 8
15 29 15 56 0 23 5 46 10 49 6 3 10 19 10 36 0 16 5 29 10 29 6 0 10 11 10 25
0 14 -4 25 -10 25 -5 0 -10 10 -10 23 -1 20 -49 68 -51 50z"/>
<path d="M2670 4090 c0 -5 5 -10 10 -10 6 0 28 -16 48 -36 31 -30 38 -33 41
-18 2 10 -2 20 -8 22 -6 2 -11 8 -11 14 0 18 -28 38 -54 38 -14 0 -26 -4 -26
-10z"/>
<path d="M2930 4015 c0 -19 5 -35 10 -35 6 0 10 -7 10 -15 0 -16 9 -19 34 -9
11 4 16 19 16 50 0 44 0 44 -35 44 -33 0 -35 -2 -35 -35z"/>
<path d="M11730 4040 c0 -5 5 -10 11 -10 5 0 7 5 4 10 -3 6 -8 10 -11 10 -2 0
-4 -4 -4 -10z"/>
<path d="M11900 4026 c0 -13 -6 -26 -12 -29 -8 -2 -9 -8 -4 -13 5 -5 11 -4 13
4 3 6 11 12 19 12 9 0 12 5 9 10 -3 6 1 13 9 16 25 9 19 24 -9 24 -20 0 -25
-5 -25 -24z"/>
<path d="M2780 3990 c0 -5 5 -10 10 -10 6 0 10 5 10 10 0 6 -4 10 -10 10 -5 0
-10 -4 -10 -10z"/>
<path d="M11650 3965 c0 -24 5 -35 15 -35 8 0 15 -5 15 -10 0 -6 8 -5 20 2 13
9 20 24 20 45 0 31 -2 33 -35 33 -33 0 -35 -2 -35 -35z"/>
<path d="M11850 3955 c0 -8 4 -15 10 -15 5 0 7 7 4 15 -4 8 -8 15 -10 15 -2 0
-4 -7 -4 -15z"/>
<path d="M11607 3924 c-10 -10 -9 -124 2 -124 5 0 11 18 15 40 3 22 12 40 19
40 8 1 6 5 -4 13 -9 7 -18 18 -20 25 -2 7 -8 10 -12 6z"/>
<path d="M3274 3885 c-4 -8 -10 -12 -15 -9 -5 3 -9 -4 -9 -15 0 -10 -6 -21
-12 -23 -18 -6 -18 -222 0 -239 6 -7 12 -23 12 -35 0 -13 5 -26 10 -29 6 -4
10 14 11 44 1 28 3 56 4 61 1 6 3 19 4 30 0 11 6 20 11 20 6 0 10 -29 10 -66
0 -45 5 -70 15 -80 8 -9 15 -26 15 -40 0 -13 5 -24 10 -24 6 0 10 7 10 16 0 8
4 13 9 10 5 -3 12 5 15 19 4 14 11 25 16 25 6 0 10 27 10 59 0 43 -4 60 -15
65 -8 3 -15 17 -15 31 0 15 -4 24 -10 20 -6 -4 -10 5 -10 20 0 15 -7 33 -15
41 -8 9 -15 29 -15 45 0 18 -4 28 -10 24 -6 -4 -10 5 -10 19 0 28 -17 35 -26
11z"/>
<path d="M11805 3860 c3 -5 8 -10 11 -10 2 0 4 5 4 10 0 6 -5 10 -11 10 -5 0
-7 -4 -4 -10z"/>
<path d="M11337 3843 c-4 -3 -7 -21 -7 -39 0 -18 -7 -39 -15 -48 -8 -8 -15
-26 -15 -41 0 -15 -4 -24 -10 -20 -6 3 -10 -5 -10 -19 0 -13 -7 -31 -15 -40
-17 -17 -22 -136 -5 -136 5 0 12 -10 15 -23 7 -25 35 -32 47 -13 4 6 8 23 8
39 0 15 5 27 10 27 6 0 10 21 10 46 0 44 16 74 39 74 6 0 11 -19 11 -42 0 -32
-3 -39 -10 -28 -7 11 -10 2 -10 -32 0 -27 5 -48 10 -48 6 0 10 14 10 31 0 17
4 28 10 24 10 -6 14 35 13 130 0 82 -3 106 -13 100 -5 -3 -10 3 -10 15 0 35
-42 64 -63 43z"/>
<path d="M2613 3823 c-18 -7 -16 -43 2 -43 8 0 15 -7 15 -16 0 -8 5 -12 10 -9
6 3 10 -1 10 -9 0 -9 7 -16 15 -16 8 0 15 -4 15 -8 0 -5 16 -25 35 -45 19 -20
35 -39 35 -42 0 -4 6 -12 13 -19 6 -8 22 -25 34 -40 13 -14 30 -26 38 -26 8 0
15 -4 15 -10 0 -5 16 -10 35 -10 19 0 35 5 35 10 0 6 18 10 40 10 22 0 40 4
40 9 0 9 -30 25 -42 23 -5 -1 -8 6 -8 15 0 9 -3 14 -6 10 -3 -3 -16 5 -29 19
-12 13 -28 24 -34 24 -7 0 -10 4 -7 9 3 4 -8 19 -24 31 -17 13 -30 27 -30 31
0 13 43 4 48 -9 2 -7 10 -12 18 -12 8 0 14 -4 14 -10 0 -5 5 -10 11 -10 6 0
17 -7 25 -15 20 -19 34 -19 34 1 0 8 -4 12 -10 9 -5 -3 -10 0 -10 7 0 15 -90
106 -90 92 0 -5 -5 -1 -11 9 -5 9 -16 17 -23 17 -8 0 -27 7 -42 15 -28 14
-143 20 -171 8z"/>
<path d="M3050 3790 c0 -5 5 -10 10 -10 6 0 10 5 10 10 0 6 -4 10 -10 10 -5 0
-10 -4 -10 -10z"/>
<path d="M11842 3773 c-6 -2 -10 -9 -6 -14 3 -5 -4 -9 -15 -9 -12 0 -21 -4
-21 -9 0 -5 -10 -13 -22 -17 -12 -3 -46 -32 -75 -62 -50 -53 -65 -82 -43 -82
6 0 10 7 10 15 0 9 6 12 15 9 9 -4 15 0 15 10 0 9 7 16 15 16 8 0 15 5 15 10
0 6 7 10 16 10 9 0 22 7 29 16 8 11 19 14 34 9 l23 -7 -21 -19 c-11 -10 -24
-19 -30 -19 -5 0 -30 -20 -55 -45 -45 -43 -46 -45 -29 -65 10 -11 25 -20 35
-20 10 0 18 -4 18 -10 0 -13 27 -13 32 -1 2 5 9 11 17 13 14 3 101 84 101 94
0 7 17 27 63 74 20 21 37 44 37 50 0 6 4 9 8 6 9 -6 42 29 42 44 0 10 -184 13
-208 3z m8 -83 c0 -5 -4 -10 -10 -10 -5 0 -10 5 -10 10 0 6 5 10 10 10 6 0 10
-4 10 -10z"/>
<path d="M3100 3685 c0 -8 5 -15 10 -15 6 0 10 7 10 15 0 8 -4 15 -10 15 -5 0
-10 -7 -10 -15z"/>
<path d="M11530 3636 c0 -8 5 -18 10 -21 6 -3 10 3 10 14 0 12 -4 21 -10 21
-5 0 -10 -6 -10 -14z"/>
<path d="M3056 3523 c-11 -11 -6 -23 9 -23 8 0 15 -4 15 -10 0 -5 5 -10 10
-10 6 0 10 6 10 13 0 14 -35 39 -44 30z"/>
<path d="M2928 3503 c-9 -38 2 -53 38 -53 30 0 34 3 34 25 0 16 -6 25 -15 25
-8 0 -15 5 -15 10 0 17 -37 11 -42 -7z"/>
<path d="M11361 3464 c0 -11 3 -14 6 -6 3 7 2 16 -1 19 -3 4 -6 -2 -5 -13z"/>
<path d="M11662 3471 c-8 -5 -12 -21 -10 -37 3 -25 7 -29 33 -29 26 0 30 4 33
29 3 27 -10 46 -33 46 -5 0 -16 -4 -23 -9z"/>
<path d="M2887 3422 c-9 -2 -15 -7 -13 -11 3 -4 -7 -8 -20 -9 -14 -1 -32 -8
-39 -16 -8 -8 -20 -16 -27 -18 -19 -7 16 -38 41 -38 12 0 21 -4 21 -10 0 -5
11 -12 25 -16 14 -3 25 -10 25 -14 0 -4 11 -11 25 -14 14 -4 25 -11 25 -16 0
-6 11 -10 25 -10 14 0 25 -4 25 -10 0 -5 5 -10 11 -10 6 0 17 -7 25 -15 11
-11 37 -15 89 -15 52 0 78 4 89 15 8 8 19 15 25 15 6 0 11 5 11 10 0 6 -7 10
-15 10 -8 0 -15 6 -15 13 0 8 -4 7 -10 -3 -8 -13 -10 -12 -10 3 0 11 -8 17
-25 17 -14 0 -25 5 -25 10 0 6 -10 10 -23 10 -13 0 -27 4 -32 8 -6 5 -30 15
-55 23 l-45 14 65 3 c39 2 66 -1 68 -7 5 -14 72 -14 72 -1 0 6 -8 10 -18 10
-9 0 -29 11 -44 25 -17 15 -39 25 -58 25 -16 0 -30 5 -30 10 0 6 -11 10 -25
10 -14 0 -25 -4 -25 -10 0 -5 -16 -10 -35 -10 -19 0 -35 4 -35 9 0 12 -21 18
-43 13z"/>
<path d="M3330 3409 c0 -11 5 -17 10 -14 6 3 10 13 10 21 0 8 -4 14 -10 14 -5
0 -10 -9 -10 -21z"/>
<path d="M11600 3373 c-14 -3 -29 -9 -34 -14 -6 -5 -16 -9 -24 -9 -7 0 -20 -6
-27 -12 -35 -32 -45 -38 -60 -38 -8 0 -15 -4 -15 -10 0 -5 14 -10 31 -10 17 0
28 4 24 10 -4 6 6 10 24 10 16 0 31 5 33 11 2 6 22 9 48 6 37 -3 41 -5 23 -11
-13 -5 -23 -12 -23 -16 0 -8 -49 -25 -62 -22 -5 1 -8 -2 -8 -8 0 -5 -13 -10
-29 -10 -16 0 -31 -5 -33 -11 -2 -5 -11 -11 -19 -12 -20 -3 -50 -32 -42 -41 4
-3 15 -6 25 -6 10 0 18 -7 18 -15 0 -12 15 -15 75 -15 60 0 75 3 75 15 0 9 9
15 25 15 14 0 25 5 25 10 0 6 6 10 13 10 7 0 24 11 38 24 14 13 35 27 47 30
12 4 22 12 22 17 0 5 10 9 23 9 12 0 31 7 41 15 10 8 23 12 27 9 14 -8 10 6
-5 21 -7 8 -16 11 -20 8 -3 -4 -6 -1 -6 5 0 7 -7 12 -15 12 -8 0 -15 4 -15 10
0 18 -69 23 -94 6 -14 -8 -26 -12 -28 -7 -4 11 -48 19 -78 14z"/>
<path d="M3930 2760 c0 -5 -7 -10 -15 -10 -10 0 -15 -11 -15 -35 0 -19 -4 -35
-9 -35 -5 0 -12 -11 -15 -25 -4 -14 -11 -25 -16 -25 -6 0 -10 -14 -10 -31 0
-17 -4 -28 -10 -24 -9 5 -15 -15 -11 -38 1 -4 -6 -10 -14 -13 -8 -4 -15 -13
-15 -22 0 -21 -32 -92 -42 -92 -4 0 -8 -13 -8 -30 0 -16 -4 -30 -10 -30 -5 0
-10 -7 -10 -15 0 -8 -7 -15 -15 -15 -8 0 -15 -4 -15 -10 0 -16 -62 -11 -75 6
-8 12 -20 15 -43 9 -27 -6 -32 -11 -32 -37 0 -29 19 -58 39 -58 6 0 11 -7 11
-15 0 -24 68 -18 130 11 30 15 67 33 82 40 14 8 33 14 42 14 9 0 16 5 16 10 0
6 11 10 24 10 13 0 26 7 30 15 3 8 14 15 25 15 11 0 23 5 26 10 3 6 17 10 30
10 12 0 25 7 29 15 3 8 15 15 26 15 11 0 20 5 20 10 0 6 8 10 18 10 10 0 27 7
38 15 10 8 27 15 37 15 24 0 57 32 39 38 -6 2 -12 9 -12 17 0 7 -14 19 -31 27
-29 14 -34 14 -72 -8 -23 -13 -50 -27 -59 -30 -10 -4 -18 -10 -18 -15 0 -5
-12 -9 -26 -9 -14 0 -23 -4 -20 -9 3 -5 -5 -12 -19 -15 -14 -4 -25 -11 -25
-16 0 -6 -11 -10 -25 -10 -14 0 -25 -4 -25 -10 0 -5 -7 -10 -15 -10 -8 0 -15
5 -15 10 0 6 4 10 9 10 5 0 12 11 15 25 4 14 11 25 16 25 6 0 10 12 10 26 0
14 4 23 10 19 6 -3 10 1 10 10 0 8 7 18 15 21 9 4 15 19 15 36 0 20 9 39 25
54 36 33 34 84 -5 124 -31 32 -40 36 -40 20z"/>
<path d="M10623 2750 c-13 -5 -23 -15 -23 -22 0 -16 -36 -49 -44 -41 -3 4 -6
-3 -6 -15 0 -12 -5 -22 -11 -22 -14 0 -39 -25 -39 -39 0 -6 -5 -11 -11 -11
-11 0 -39 -24 -39 -34 0 -3 -15 -20 -34 -38 -40 -39 -56 -78 -32 -78 9 0 16
-6 16 -14 0 -8 7 -17 16 -20 23 -9 34 -7 34 4 0 14 57 70 64 63 3 -4 6 -1 6 5
0 7 7 12 15 12 8 0 15 -4 15 -10 0 -5 7 -10 15 -10 9 0 18 -7 21 -15 4 -8 13
-15 21 -15 8 0 12 -4 9 -8 -3 -5 4 -15 16 -23 11 -8 38 -31 59 -51 21 -21 43
-38 49 -38 5 0 10 -7 10 -15 0 -8 5 -15 11 -15 14 0 39 -25 39 -39 0 -6 5 -11
11 -11 14 0 39 -26 39 -40 0 -6 4 -9 8 -6 9 6 42 -29 42 -44 0 -6 5 -10 11
-10 14 0 39 25 39 39 0 6 7 11 15 11 9 0 15 9 15 25 0 16 -6 25 -15 25 -8 0
-15 7 -15 15 0 8 -7 15 -16 15 -8 0 -12 5 -9 10 3 6 -1 10 -9 10 -9 0 -16 7
-16 15 0 8 -4 14 -8 13 -5 -2 -41 30 -80 70 -40 39 -72 66 -73 60 0 -7 -6 -2
-12 12 -15 32 -28 46 -53 54 -20 6 -54 54 -54 77 0 6 18 29 40 50 22 21 40 46
40 55 0 10 -3 15 -6 11 -3 -3 -16 5 -28 18 -17 19 -26 22 -43 15z"/>
<path d="M4450 2219 c0 -7 -11 -22 -25 -35 -14 -13 -25 -30 -25 -39 0 -8 -4
-15 -10 -15 -5 0 -10 -7 -10 -15 0 -8 -7 -15 -15 -15 -8 0 -15 -5 -15 -11 0
-14 -25 -39 -39 -39 -6 0 -11 -9 -11 -20 0 -23 -30 -61 -42 -54 -4 3 -8 -2 -8
-10 0 -9 -4 -16 -10 -16 -5 0 -10 -6 -10 -14 0 -8 -13 -28 -30 -46 -16 -18
-30 -36 -30 -42 0 -5 -4 -6 -10 -3 -5 3 -10 -3 -10 -15 0 -12 -4 -19 -9 -15
-5 3 -12 -4 -16 -15 -3 -11 -11 -20 -16 -20 -5 0 -9 -9 -9 -20 0 -24 62 -90
68 -72 2 7 10 12 18 12 8 0 14 10 14 25 0 16 6 25 15 25 8 0 15 7 15 16 0 8 5
12 10 9 6 -3 10 -1 10 5 0 6 11 23 25 38 14 15 25 32 25 38 0 14 29 28 50 25
8 -2 25 -14 36 -27 12 -13 25 -24 30 -24 5 -1 20 -10 33 -21 l24 -20 -23 -44
c-13 -25 -29 -45 -37 -45 -7 0 -13 -5 -13 -11 0 -6 -6 -17 -12 -24 -30 -33
-38 -45 -38 -54 0 -5 -4 -11 -9 -13 -14 -5 -24 -48 -10 -48 6 0 22 -11 35 -25
25 -27 34 -31 34 -14 0 14 25 39 39 39 6 0 11 9 11 20 0 11 16 36 35 54 19 19
35 39 35 45 0 7 7 14 15 17 8 4 15 12 15 19 0 7 7 16 16 19 8 3 12 10 9 16 -3
5 1 10 9 10 9 0 16 5 16 11 0 7 11 22 25 35 14 13 25 28 25 35 0 6 16 26 35
45 19 18 35 37 35 42 0 5 11 22 25 38 30 35 31 48 5 74 -31 31 -61 25 -92 -19
-16 -22 -28 -44 -28 -50 0 -6 -7 -11 -15 -11 -8 0 -15 -7 -15 -15 0 -8 -3 -15
-7 -15 -5 0 -17 -14 -28 -30 -24 -36 -25 -36 -53 -10 -12 11 -24 20 -27 20 -4
0 -13 6 -20 13 -33 29 -45 37 -55 37 -22 0 -8 44 24 74 18 18 37 42 40 54 4
12 12 22 17 22 5 0 9 5 9 11 0 14 25 39 39 39 22 0 11 41 -14 50 -14 5 -25 14
-25 20 0 5 -11 10 -25 10 -14 0 -25 -5 -25 -11z"/>
<path d="M10073 2214 c-3 -8 -14 -14 -24 -14 -10 0 -19 -7 -19 -15 0 -8 -7
-15 -15 -15 -8 0 -15 -4 -15 -10 0 -5 -5 -10 -11 -10 -14 0 -39 -25 -39 -39 0
-6 -3 -10 -7 -10 -22 4 -43 -2 -43 -12 0 -6 -7 -17 -15 -25 -8 -9 -15 -19 -15
-24 0 -5 7 -15 15 -24 8 -8 15 -17 15 -21 0 -3 11 -16 23 -28 13 -12 32 -34
41 -49 10 -15 22 -25 27 -22 8 5 14 -17 10 -38 0 -5 4 -8 10 -8 11 0 39 -25
39 -35 0 -6 10 -19 38 -50 6 -7 12 -18 12 -24 0 -6 7 -11 15 -11 8 0 15 -7 15
-15 0 -8 5 -15 10 -15 6 0 10 -6 10 -13 0 -8 11 -20 25 -27 16 -8 25 -22 25
-37 0 -13 4 -22 9 -21 5 2 21 -10 35 -27 20 -23 26 -26 26 -12 0 9 5 17 11 17
14 0 39 25 39 39 0 6 7 11 15 11 8 0 15 5 15 10 0 6 5 10 10 10 10 0 22 8 55
38 7 6 18 12 24 12 6 0 11 5 11 11 0 14 25 39 39 39 17 0 13 9 -12 33 -13 12
-26 28 -28 36 -4 11 -8 11 -21 -3 -9 -9 -21 -16 -27 -16 -6 0 -27 -16 -45 -35
-19 -19 -39 -35 -45 -35 -6 0 -11 -7 -11 -15 0 -8 -3 -15 -7 -15 -14 1 -43 27
-43 39 0 6 -7 11 -15 11 -8 0 -15 5 -15 10 0 6 -11 22 -25 36 -23 22 -25 54
-4 54 5 0 9 7 9 15 0 8 5 15 10 15 10 0 22 8 55 38 7 6 18 12 24 12 6 0 11 9
11 21 0 21 -22 49 -38 49 -6 0 -13 6 -16 13 -5 10 -7 10 -12 0 -3 -7 -12 -13
-20 -13 -8 0 -14 -7 -14 -15 0 -8 -4 -14 -9 -12 -5 1 -17 -7 -27 -19 -27 -30
-59 -38 -77 -19 -9 8 -20 15 -26 15 -6 0 -11 11 -11 25 0 14 -5 25 -11 25 -12
0 -38 29 -39 43 0 4 7 7 15 7 8 0 15 7 15 16 0 8 5 12 10 9 6 -3 13 1 16 9 3
9 15 16 25 16 10 0 19 5 19 11 0 14 25 39 39 39 6 0 11 11 11 25 0 16 -6 25
-15 25 -8 0 -15 6 -15 13 0 18 -40 19 -47 1z"/>
<path d="M9510 1824 c-13 -13 -33 -24 -42 -24 -10 0 -18 -4 -18 -9 0 -5 -11
-12 -25 -15 -14 -4 -25 -11 -25 -16 0 -6 -7 -10 -15 -10 -8 0 -15 -3 -15 -7 0
-9 -57 -43 -71 -43 -6 0 -20 -11 -33 -25 -13 -14 -29 -25 -35 -25 -14 0 -4
-43 10 -48 5 -2 9 -10 9 -19 0 -10 6 -12 23 -7 12 3 24 11 25 15 2 5 15 9 28
9 15 0 24 6 24 15 0 9 9 15 25 15 16 0 25 -6 25 -15 0 -8 6 -15 13 -15 7 0 14
-10 14 -22 1 -13 7 -24 13 -26 5 -2 10 -8 10 -14 0 -5 6 -16 13 -23 29 -33 37
-45 37 -55 0 -5 4 -10 9 -10 5 0 12 -11 15 -25 4 -14 11 -25 16 -25 6 0 10
-11 10 -25 0 -16 6 -25 15 -25 8 0 15 -7 15 -15 0 -8 5 -15 10 -15 6 0 10 -9
10 -21 0 -11 6 -27 13 -34 29 -33 37 -45 37 -55 0 -16 39 -12 71 7 32 19 36
34 14 53 -8 7 -15 19 -15 26 0 8 -4 14 -10 14 -5 0 -10 9 -10 20 0 11 -7 20
-15 20 -10 0 -15 10 -15 28 0 21 -2 24 -10 12 -8 -12 -10 -11 -10 8 0 21 -5
31 -37 67 -7 7 -13 21 -13 31 0 9 -11 27 -25 40 -14 13 -25 32 -25 44 0 11 -7
20 -15 20 -9 0 -15 9 -15 25 0 14 -4 25 -9 25 -5 0 -11 10 -14 22 -7 24 17 58
40 58 7 0 13 5 13 10 0 6 11 10 25 10 21 0 25 5 25 31 0 17 -4 28 -10 24 -5
-3 -12 6 -16 20 -8 31 -31 31 -64 -1z"/>
<path d="M5068 1779 c-10 -11 -18 -28 -18 -39 0 -11 -4 -20 -9 -20 -5 0 -12
-11 -15 -25 -4 -14 -11 -25 -16 -25 -6 0 -10 -9 -10 -20 0 -11 -4 -20 -9 -20
-5 0 -12 -11 -15 -25 -4 -14 -11 -25 -16 -25 -6 0 -10 -11 -10 -25 0 -14 -4
-25 -9 -25 -5 0 -12 -11 -15 -25 -4 -14 -11 -25 -16 -25 -6 0 -10 -14 -10 -31
0 -16 -4 -28 -9 -25 -5 3 -12 -5 -15 -19 -4 -14 -11 -25 -16 -25 -6 0 -10 -11
-10 -25 0 -14 -4 -25 -9 -25 -5 0 -12 -11 -15 -25 -4 -14 -11 -25 -16 -25 -6
0 -10 -11 -10 -25 0 -18 5 -25 19 -25 10 0 24 -7 31 -15 10 -12 15 -11 35 10
12 14 32 25 44 25 12 0 21 6 21 15 0 8 9 15 21 15 11 0 35 16 53 35 19 19 43
35 55 35 12 0 21 6 21 15 0 8 7 15 15 15 8 0 15 5 15 10 0 6 7 10 15 10 9 0
26 11 39 25 13 14 28 25 35 25 16 0 14 -26 -4 -44 -8 -8 -15 -24 -15 -35 0
-12 -4 -21 -9 -21 -5 0 -12 -11 -15 -25 -4 -14 -11 -25 -16 -25 -6 0 -10 -11
-10 -25 0 -14 -4 -25 -9 -25 -5 0 -12 -11 -15 -25 -4 -14 -11 -25 -16 -25 -6
0 -10 -11 -10 -24 0 -13 -4 -26 -9 -28 -4 -1 -12 -13 -15 -25 -5 -17 -3 -23 7
-23 9 0 17 -4 19 -9 6 -17 46 -22 59 -7 32 35 39 46 39 60 0 18 32 76 43 76 4
0 7 11 7 25 0 14 4 25 9 25 5 0 12 11 15 25 4 14 11 25 16 25 6 0 10 9 10 20
0 11 5 20 10 20 6 0 10 9 10 19 0 11 7 26 15 35 8 8 15 24 15 35 0 12 5 21 10
21 6 0 10 6 10 14 0 8 7 16 15 20 8 3 15 17 15 31 0 14 5 25 10 25 6 0 10 8
10 18 0 10 5 23 11 29 8 8 5 13 -10 18 -12 3 -19 11 -16 16 4 5 -8 9 -24 9
-17 0 -31 -4 -31 -10 0 -5 -11 -12 -25 -16 -14 -3 -25 -10 -25 -15 0 -5 -5 -9
-11 -9 -6 0 -17 -6 -24 -12 -33 -30 -45 -38 -55 -38 -5 0 -10 -4 -10 -10 0 -5
-11 -12 -25 -16 -14 -3 -25 -10 -25 -15 0 -5 -5 -9 -11 -9 -6 0 -17 -6 -24
-12 -31 -28 -44 -38 -51 -38 -4 0 -17 -11 -30 -25 -13 -14 -26 -25 -29 -25 -3
0 -5 11 -5 25 0 14 4 25 9 25 5 0 12 11 15 25 4 14 11 25 16 25 6 0 10 9 10
20 0 11 5 20 10 20 6 0 10 8 10 19 0 10 7 24 15 31 8 7 15 19 15 26 0 8 5 14
10 14 6 0 10 9 10 19 0 11 6 26 14 33 19 20 26 88 9 88 -8 0 -16 6 -19 13 -7
19 -37 17 -56 -4z"/>
<path d="M8862 1508 c-7 -7 -12 -27 -12 -45 0 -18 -4 -33 -9 -33 -4 0 -11 -32
-13 -71 -3 -39 -11 -76 -17 -82 -7 -7 -11 -51 -11 -114 0 -62 -4 -103 -10
-103 -5 0 -10 5 -10 10 0 6 -7 10 -15 10 -11 0 -15 11 -15 39 0 22 -5 41 -11
43 -5 2 -13 22 -16 46 -3 23 -10 42 -14 42 -5 0 -9 12 -9 26 0 14 -7 32 -15
40 -8 9 -15 26 -15 40 0 13 -4 24 -10 24 -5 0 -10 9 -10 20 0 16 -7 20 -30 20
-16 0 -30 -4 -30 -10 0 -5 -9 -10 -20 -10 -15 0 -20 -7 -20 -25 0 -14 4 -25 9
-25 5 0 12 -13 16 -30 4 -16 11 -32 16 -35 5 -4 9 -21 9 -38 0 -18 7 -41 15
-51 8 -11 15 -30 15 -43 0 -13 5 -23 10 -23 6 0 10 -14 10 -31 0 -17 7 -37 15
-45 8 -9 15 -26 15 -39 0 -13 5 -27 10 -30 6 -3 10 -22 10 -41 0 -20 4 -33 9
-29 6 3 13 -10 17 -30 3 -19 10 -35 15 -35 5 0 9 -7 9 -15 0 -9 9 -15 24 -15
23 0 31 6 64 44 7 9 12 45 12 94 0 43 4 82 9 88 5 5 11 40 14 79 2 38 10 71
16 73 6 2 11 24 11 50 0 57 19 45 27 -17 3 -22 9 -38 14 -35 5 3 9 -13 9 -34
0 -23 6 -45 15 -52 8 -7 15 -23 15 -36 0 -13 5 -24 10 -24 6 0 10 -15 10 -32
0 -18 7 -42 15 -52 8 -11 15 -30 15 -43 0 -27 12 -29 34 -8 8 8 24 15 35 15
17 0 21 6 21 35 0 19 -4 35 -10 35 -5 0 -10 18 -10 41 0 24 -4 38 -10 34 -5
-3 -12 12 -16 34 -4 23 -10 38 -15 35 -5 -3 -9 13 -9 36 0 24 -7 48 -15 56 -8
9 -15 24 -15 35 0 10 -4 19 -10 19 -5 0 -10 18 -10 39 0 25 -5 41 -15 45 -9 3
-15 18 -15 36 0 16 -4 30 -10 30 -5 0 -10 12 -10 26 0 14 -6 32 -14 40 -18 17
-58 18 -74 2z"/>
<path d="M5800 1445 c0 -14 -4 -25 -9 -25 -5 0 -12 -16 -15 -35 -4 -19 -11
-35 -16 -35 -6 0 -10 -16 -10 -35 0 -19 -4 -35 -10 -35 -5 0 -10 -11 -10 -24
0 -14 -7 -31 -15 -40 -8 -8 -15 -28 -15 -44 0 -17 -4 -32 -10 -34 -5 -1 -11
-16 -12 -32 -1 -15 -8 -31 -15 -33 -7 -3 -13 -20 -13 -39 0 -19 -4 -34 -10
-34 -5 0 -10 -11 -10 -24 0 -14 -7 -31 -15 -40 -24 -23 -19 -55 10 -62 14 -3
25 -10 25 -15 0 -5 11 -9 24 -9 13 0 26 -4 28 -10 2 -5 14 -11 27 -13 14 -2
27 -9 29 -15 2 -8 32 -12 83 -12 64 0 79 3 79 15 0 8 5 15 11 15 14 0 39 25
39 39 0 6 7 11 15 11 12 0 15 17 15 94 0 74 -3 95 -15 100 -26 10 -18 45 13
52 15 4 34 15 43 25 9 10 19 16 23 12 3 -3 6 1 6 9 0 9 7 21 15 28 10 9 15 32
15 75 0 57 -3 66 -31 94 -17 17 -39 31 -49 31 -10 0 -20 3 -22 8 -7 17 -72 42
-109 42 -21 0 -39 5 -39 10 0 6 -11 10 -25 10 -20 0 -25 -5 -25 -25z m171
-124 c29 -29 38 -64 19 -76 -5 -3 -10 -13 -10 -21 0 -8 -9 -23 -20 -34 -17
-17 -31 -20 -78 -18 -53 3 -57 5 -60 29 -2 15 4 33 12 42 9 9 16 25 16 36 0
12 5 21 10 21 6 0 10 11 10 25 0 22 4 25 36 25 26 0 43 -8 65 -29z m-118 -233
c15 -7 27 -19 27 -26 0 -7 5 -10 10 -7 6 4 10 -17 10 -54 0 -34 -4 -61 -9 -61
-5 0 -13 -9 -16 -20 -5 -17 -15 -20 -57 -20 -34 0 -58 6 -70 17 -20 18 -24 48
-8 58 6 3 10 19 10 36 0 16 4 29 9 29 5 0 11 14 15 30 6 34 32 39 79 18z"/>
<path d="M8030 1291 c0 -5 -11 -12 -25 -15 -14 -4 -25 -11 -25 -16 0 -6 -7
-10 -15 -10 -8 0 -15 -7 -15 -16 0 -8 -4 -13 -9 -10 -5 3 -12 -5 -15 -19 -4
-14 -11 -25 -16 -25 -6 0 -10 -13 -10 -30 0 -16 -4 -30 -8 -30 -5 0 -10 -31
-11 -70 -1 -44 2 -70 8 -70 6 0 11 -22 11 -51 0 -31 6 -56 15 -65 8 -9 15 -24
15 -34 0 -10 5 -22 10 -25 6 -3 10 -15 10 -25 0 -23 68 -95 99 -105 12 -3 19
-11 16 -16 -4 -5 24 -9 64 -9 39 0 71 4 71 9 0 5 16 12 36 16 20 3 43 13 50
20 19 19 18 71 -2 79 -19 7 -64 -3 -64 -15 0 -5 -22 -9 -50 -9 -27 0 -50 3
-50 8 0 4 -16 16 -35 26 -21 12 -35 27 -35 38 0 11 -7 26 -15 34 -8 9 -15 24
-15 35 0 10 -4 19 -10 19 -6 0 -10 45 -10 116 0 114 0 116 29 145 26 26 36 29
91 29 38 0 59 4 55 10 -3 6 1 10 9 10 12 0 16 10 16 40 l0 40 -85 0 c-47 0
-85 -4 -85 -9z"/>
<path d="M6470 1254 c0 -8 -4 -12 -10 -9 -6 4 -10 -27 -10 -84 0 -54 -4 -91
-10 -91 -5 0 -10 -24 -10 -52 0 -86 -12 -188 -21 -182 -5 3 -9 -38 -9 -90 l0
-96 76 0 c47 0 73 -4 69 -10 -4 -6 20 -10 64 -10 39 0 74 0 79 0 4 0 8 19 10
44 l3 43 -102 8 c-66 4 -97 10 -88 16 10 6 10 9 2 9 -15 0 -17 36 -3 45 6 3
10 28 10 56 l0 49 100 0 100 0 0 40 c0 30 -4 40 -16 40 -8 0 -12 5 -9 10 4 6
-22 10 -69 10 l-76 0 0 84 c0 80 1 84 24 90 27 7 56 -1 56 -15 0 -5 29 -9 64
-9 70 0 76 5 76 66 l0 34 -80 0 c-47 0 -80 4 -80 10 0 6 -30 10 -70 10 -57 0
-70 -3 -70 -16z"/>
<path d="M7200 1210 c0 -5 -11 -10 -25 -10 l-25 0 0 -300 c0 -319 -1 -309 44
-301 5 1 13 -4 17 -11 7 -10 9 -10 9 2 0 13 1 13 10 0 6 -10 10 -11 10 -2 0 6
7 12 16 12 13 0 15 14 13 98 l-3 97 39 3 c22 2 54 9 72 17 17 8 35 15 40 15 5
0 15 9 23 19 7 11 17 18 21 15 4 -2 10 5 14 16 3 11 11 20 16 20 5 0 9 14 9
30 0 17 5 30 10 30 6 0 10 24 10 54 0 30 -4 58 -10 61 -5 3 -10 19 -10 35 0
15 -7 30 -15 34 -8 3 -15 13 -15 21 0 9 -4 13 -10 10 -5 -3 -10 1 -10 9 0 10
-9 16 -25 16 -14 0 -25 5 -25 10 0 6 -40 10 -100 10 -60 0 -100 -4 -100 -10z
m129 -80 c10 0 30 -10 44 -23 24 -20 27 -30 27 -90 0 -37 -4 -67 -9 -67 -5 0
-13 -9 -16 -20 -4 -11 -11 -18 -16 -15 -5 4 -9 1 -9 -5 0 -7 -19 -10 -50 -9
l-50 3 0 112 c0 99 2 113 18 117 9 3 23 3 30 1 8 -2 22 -4 31 -4z"/>
</g>
</svg>
